<svg width="362" height="250" viewBox="0 0 362 250" fill="none" xmlns="http://www.w3.org/2000/svg">
<path fill-rule="evenodd" clip-rule="evenodd" d="M-235.088 -33.0614C-237.718 -32.2804 -239.714 -30.1308 -240.286 -27.4471C-240.543 -26.2333 -240.491 -24.958 -240.136 -23.7622L-238.452 -18.1119C-239.497 -17.0719 -240.243 -15.7382 -240.559 -14.2607C-240.845 -12.9019 -240.759 -11.4902 -240.304 -10.1665L-238.577 -5.14988C-239.705 -4.06982 -240.502 -2.66274 -240.84 -1.08049L-240.84 -1.0852C-241.161 0.42241 -241.036 1.9808 -240.476 3.42378L-238.75 7.86178C-239.942 8.98457 -240.787 10.4565 -241.136 12.0973L-241.141 12.0965C-241.492 13.7537 -241.323 15.4548 -240.648 17.0187L-238.975 20.8903C-240.212 22.0449 -241.076 23.5588 -241.44 25.2688C-241.828 27.0844 -241.611 28.929 -240.815 30.6098L-239.231 33.9518C-240.496 35.1427 -241.382 36.6971 -241.755 38.4434C-242.168 40.3851 -241.898 42.4273 -240.987 44.2L-239.528 47.0359C-240.806 48.2587 -241.704 49.8467 -242.078 51.6117C-242.527 53.707 -242.199 55.899 -241.158 57.7855L-239.853 60.1427C-241.128 61.3948 -242.026 63.0072 -242.407 64.7839C-242.888 67.0429 -242.502 69.38 -241.324 71.3717L-240.206 73.2618C-241.475 74.5349 -242.353 76.1461 -242.739 77.9507L-242.738 77.946C-243.257 80.368 -242.815 82.8596 -241.495 84.9573L-240.584 86.4057C-241.831 87.6997 -242.695 89.3168 -243.081 91.1159C-243.632 93.7017 -243.127 96.3391 -241.665 98.5428L-240.985 99.5672C-242.2 100.88 -243.045 102.498 -243.428 104.28C-244.004 106.992 -243.427 109.855 -241.836 112.128L-241.403 112.748C-242.581 114.072 -243.405 115.685 -243.779 117.444C-244.393 120.324 -243.745 123.338 -242.006 125.709L-241.833 125.945C-242.97 127.279 -243.767 128.881 -244.136 130.611L-244.131 130.612C-244.771 133.6 -244.093 136.707 -242.278 139.16C-243.364 140.495 -244.13 142.077 -244.492 143.774C-245.132 146.779 -244.489 149.877 -242.725 152.367C-243.771 153.697 -244.497 155.243 -244.857 156.935C-245.5 159.962 -244.89 163.056 -243.173 165.584C-244.172 166.911 -244.87 168.438 -245.222 170.097L-245.226 170.091C-245.876 173.142 -245.291 176.237 -243.621 178.798C-244.58 180.12 -245.251 181.628 -245.597 183.256L-245.592 183.257C-246.239 186.276 -245.665 189.426 -244.058 192.013C-244.977 193.331 -245.625 194.821 -245.967 196.417L-245.972 196.416C-246.616 199.454 -246.071 202.609 -244.502 205.231C-245.384 206.541 -246.009 208.009 -246.342 209.576C-246.997 212.638 -246.474 215.791 -244.942 218.442C-245.791 219.745 -246.394 221.196 -246.722 222.735L-246.726 222.734C-247.383 225.818 -246.881 228.981 -245.384 231.663C-246.198 232.956 -246.78 234.385 -247.101 235.894C-247.764 238.998 -247.287 242.167 -245.826 244.877C-246.608 246.162 -247.172 247.572 -247.491 249.056L-247.49 249.051C-248.458 253.602 -247.05 258.258 -243.725 261.51L50.6559 549.414C53.2343 551.936 56.6435 553.312 60.2562 553.276C63.868 553.245 67.2466 551.811 69.7725 549.239L358.055 255.889C359.852 254.058 361.082 251.771 361.618 249.274C362.59 244.729 361.183 240.069 357.857 236.817L63.4769 -51.0881C61.9921 -52.5403 60.2315 -53.6109 58.3155 -54.2519C57.1786 -55.1015 55.9221 -55.7552 54.5884 -56.196C53.4405 -57.0586 52.1785 -57.7053 50.8595 -58.1349C49.7289 -58.9977 48.4683 -59.6559 47.1246 -60.0886C46.0026 -60.9523 44.7474 -61.6091 43.4062 -62.0361C42.2773 -62.9121 41.0202 -63.5603 39.7014 -63.9765C38.5791 -64.8643 37.3072 -65.5324 35.9407 -65.9517C34.8439 -66.824 33.5976 -67.48 32.2552 -67.8907C31.1494 -68.7856 29.8826 -69.4534 28.5142 -69.8615C27.4238 -70.7514 26.1683 -71.4139 24.8076 -71.815C23.7018 -72.73 22.4338 -73.3894 21.0939 -73.779C19.9959 -74.7015 18.7278 -75.3636 17.3854 -75.7481C16.3122 -76.6663 15.0491 -77.3419 13.6637 -77.7286C12.5835 -78.6617 11.3182 -79.3261 9.97431 -79.6976C8.91998 -80.6326 7.6563 -81.3171 6.25666 -81.6934C5.26412 -82.5839 4.07487 -83.2454 2.7553 -83.6256C2.68547 -83.6457 2.61556 -83.6649 2.54554 -83.6833C1.48889 -84.6436 0.217471 -85.3201 -1.14156 -85.6718C-2.19086 -86.6462 -3.46706 -87.3306 -4.83503 -87.6766C-5.87421 -88.6612 -7.15194 -89.3514 -8.52578 -89.6903C-9.55297 -90.682 -10.8293 -91.3765 -12.2061 -91.7083C-13.2211 -92.7088 -14.4966 -93.4097 -15.8773 -93.7356C-17.7631 -95.6378 -20.6113 -96.4729 -23.3539 -95.6625L-235.088 -33.0614ZM-17.868 -93.9391C-19.3675 -94.8558 -21.2355 -95.1603 -23.0497 -94.6251L-234.774 -32.0224C-237.028 -31.3569 -238.734 -29.5165 -239.222 -27.2198C-239.444 -26.184 -239.4 -25.0936 -239.094 -24.0703L-237.548 -18.8838C-236.935 -19.3304 -236.253 -19.6893 -235.519 -19.9402L-20.1402 -93.5269C-19.3887 -93.7837 -18.6239 -93.9175 -17.868 -93.9391ZM-237.219 -17.7831C-236.62 -18.2707 -235.928 -18.657 -235.164 -18.9184L-19.7936 -92.5114C-18.6769 -92.8915 -17.5269 -92.957 -16.4415 -92.7553C-16.1669 -92.4505 -15.9199 -92.1173 -15.7057 -91.7585C-16.1152 -91.6717 -16.5229 -91.5514 -16.9256 -91.396L-234.157 -7.50895L-237.219 -17.7831ZM-238.097 -16.9201C-238.78 -16.1069 -239.266 -15.1243 -239.499 -14.0342C-239.749 -12.8675 -239.673 -11.6509 -239.284 -10.5123L-237.69 -5.88281C-237.157 -6.26112 -236.573 -6.57657 -235.945 -6.81827L-235.174 -7.11628L-238.097 -16.9201ZM-234.865 -6.08033L-235.553 -5.81446C-236.199 -5.5656 -236.793 -5.22599 -237.321 -4.81178L-233.865 5.22748L-231.763 4.32526L-234.865 -6.08033ZM-231.453 5.36262L-233.514 6.24686L-230.068 16.2526L-228.436 15.4838L-231.453 5.36262ZM-227.442 15.0161L-230.449 4.93144L-14.3286 -87.8229L-13.6761 -85.634L-227.442 15.0161ZM-228.124 16.5299L-229.715 17.2791L-226.371 26.991L-225.186 26.3851L-228.124 16.5299ZM-224.203 25.8829L-227.131 16.0623L-13.3635 -84.5854L-12.6658 -82.2449L-224.203 25.8829ZM-224.872 27.438L-226.016 28.0227L-222.763 37.4693L-222.005 37.0524L-224.872 27.438ZM-221.033 36.5175L-223.889 26.9358L-12.3519 -81.192L-11.6114 -78.708L-221.033 36.5175ZM-221.69 38.1103L-222.407 38.5046L-219.239 47.7042L-218.891 47.4993L-221.69 38.1103ZM-217.928 46.9334L-220.718 37.5754L-11.2961 -77.65L-10.518 -75.0398L-217.928 46.9334ZM-218.573 48.5649L-218.88 48.7457L-216.186 56.5703L-218.573 48.5649ZM-214.883 57.1496L-217.611 47.999L-10.1995 -73.9716L-9.38648 -71.2441L-214.883 57.1496ZM-211.894 67.1755L-214.564 58.2202L-9.06824 -70.1766L-8.2205 -67.3328L-211.894 67.1755ZM-208.959 77.0227L-211.573 68.2535L-7.89752 -66.2492L-7.02355 -63.3174L-208.959 77.0227ZM-207.767 81.0229L-208.634 78.1148L-6.69718 -62.2226L-5.79458 -59.1947L-205.86 86.5606L-207.767 81.0229ZM-198.795 111.121L-199.482 108.815L-198.235 112.021L-197.566 113.964L-198.795 111.121ZM-199.793 111.556L-198.57 115.658L-199.098 116.093L-202.584 108.738L-201.412 107.809L-199.793 111.556ZM-203.816 98.0612L-202.431 102.706L-204.285 98.4178L-203.816 98.0612ZM-204.312 96.3988L-204.147 96.9526L-204.727 97.3942L-208.119 89.5449L-207.23 88.897L-204.312 96.3988ZM-208.819 81.2814L-208.116 83.6374L-209.918 79.0071L-209.663 78.8301L-208.819 81.2814ZM-198.235 116.78L-197.325 119.835L-198.622 117.098L-198.235 116.78ZM-194.942 124.048L-196.158 119.966L-194.542 123.706L-194.942 124.048ZM-194.287 126.244L-194.604 125.181L-194.093 124.745L-192.92 127.46L-191.283 132.213L-191.406 132.322L-194.287 126.244ZM-195.29 126.659L-195.591 126.023L-197.042 127.261L-193.491 134.162L-193.144 133.856L-195.29 126.659ZM-192.804 134.998L-192.981 135.154L-192.449 136.189L-192.804 134.998ZM-189.771 141.395L-191.912 134.211L-191.77 134.085L-188.502 140.98L-189.511 141.899L-189.771 141.395ZM-190.771 141.816L-190.482 142.784L-192.064 144.225L-195.738 137.588L-193.818 135.893L-190.771 141.816ZM-190.138 143.939L-187.85 151.614L-187.931 151.69L-191.523 145.201L-190.138 143.939ZM-186.971 150.788L-188.094 147.021L-186.421 150.272L-186.971 150.788ZM-185.268 156.5L-186.625 151.948L-185.906 151.273L-182.571 157.757L-183.875 159.016L-185.268 156.5ZM-186.265 156.932L-185.248 160.342L-186.639 161.686L-190.338 155.434L-188.203 153.43L-186.265 156.932ZM-184.9 161.508L-183.027 167.791L-186.074 162.641L-184.9 161.508ZM-181.806 168.115L-183.827 161.335L-180.687 167.006L-181.806 168.115ZM-180.76 171.622L-181.456 169.289L-180.144 167.987L-177.03 173.611L-176.837 174.172L-178.344 175.706L-180.76 171.622ZM-181.755 172.057L-182.677 170.5L-185.003 172.808L-181.295 178.708L-180.127 177.519L-181.755 172.057ZM-179.264 176.642L-179.489 175.888L-179.126 176.501L-179.264 176.642ZM-179.773 178.706L-180.703 179.651L-178.398 183.319L-179.773 178.706ZM-176.26 186.72L-178.911 177.828L-178.555 177.466L-171.732 188.999L-170.787 191.743C-171.943 191.591 -173.033 191.126 -173.939 190.414L-176.26 186.72ZM-177.246 187.183L-177.145 187.52C-176.709 188.987 -175.861 190.22 -174.763 191.132L-166.435 204.383L-166.304 204.765C-165.863 206.044 -165.117 207.134 -164.174 207.981L-155.61 221.606L-155.453 222.011C-155.027 223.108 -154.382 224.057 -153.586 224.827L-144.8 238.807L-144.61 239.246C-144.212 240.167 -143.663 240.978 -143.005 241.663L-133.959 256.055L-133.754 256.488C-133.402 257.233 -132.953 257.901 -132.431 258.487L-123.189 273.192L-122.916 273.723C-122.612 274.312 -122.25 274.851 -121.84 275.338L-112.336 290.46L-112.059 290.96C-111.83 291.374 -111.572 291.762 -111.29 292.124L-102.647 305.875L-184.156 183.165L-181.481 180.444L-177.246 187.183ZM-172.726 192.343C-171.99 192.636 -171.206 192.814 -170.401 192.863L-167.982 199.891L-172.726 192.343ZM-168.295 192.691L-164.099 199.783L-167 192.325L-167.822 192.568C-167.979 192.614 -168.137 192.656 -168.295 192.691ZM-165.654 191.927L-162.944 196.822L-165.127 191.771L-165.654 191.927ZM-165.583 190.781L-166.189 190.96L-166.798 189.862L-169.099 183.946L-165.583 190.781ZM-163.463 191.279L-155.914 207.208L-155.474 208.063L58.5216 134.946C60.7479 134.184 62.3643 132.362 62.8573 130.062L62.8526 130.061C63.1019 128.894 63.026 127.678 62.6365 126.544L13.0448 -17.4978L8.99816 -13.3801L48.9601 120.672C49.3151 121.868 49.3667 123.143 49.1103 124.352C48.5383 127.036 46.5468 129.191 43.9074 129.966L-163.463 191.279ZM8.12686 -12.4935L47.9133 120.975C48.22 121.998 48.2686 123.089 48.0461 124.125L48.0501 124.131C47.5578 126.427 45.8513 128.267 43.5969 128.937L-163.931 190.293L-171.303 174.739L-172.699 171.507L8.12686 -12.4935ZM8.64394 -14.5683L12.6499 -18.6447L11.4638 -22.0899L7.55701 -18.2144L8.64394 -14.5683ZM6.68064 -17.345L7.77266 -13.6817L-173.163 170.433L-175.998 163.874L6.68064 -17.345ZM7.20713 -19.3881L11.0734 -23.2236L9.90185 -26.6265L6.13406 -22.9877L7.20713 -19.3881ZM5.25241 -22.1362L6.33075 -18.5188L-176.458 162.81L-179.341 156.139L5.25241 -22.1362ZM5.78641 -24.1539L9.51379 -27.7537L8.3584 -31.1095L4.72872 -27.7019L5.78641 -24.1539ZM3.84157 -26.869L4.90478 -23.3024L-179.799 155.079L-182.731 148.292L3.84157 -26.869ZM4.38191 -28.8653L7.97096 -32.2349L6.83162 -35.5441L3.33951 -32.362L4.38191 -28.8653ZM2.44666 -31.5485L3.49479 -28.0324L-183.188 147.236L-185.092 142.829L-186.094 140.254L2.44666 -31.5485ZM2.99662 -33.5123L6.44833 -36.6574L5.32636 -39.9163L1.97067 -36.9538L2.99662 -33.5123ZM1.07188 -36.1603L2.10377 -32.6987L-186.516 139.17L-189.331 131.932L1.07188 -36.1603ZM1.63012 -38.0962L4.94534 -41.023L3.84476 -44.2196L0.6242 -41.4705L1.63012 -38.0962ZM-0.280779 -40.698L0.731319 -37.3027L-189.749 130.858L-192.617 123.484L-0.280779 -40.698ZM0.284891 -42.6087L3.46481 -45.3233L2.3833 -48.4646L-0.702963 -45.9225L0.284891 -42.6087ZM-1.6144 -45.1718L-0.620074 -41.8362L-193.032 122.417L-195.955 114.902L-1.6144 -45.1718ZM-1.03831 -47.0474L2.00747 -49.5562L0.946567 -52.6376L-2.00675 -50.296L-1.03831 -47.0474ZM-2.92491 -49.568L-1.94975 -46.2967L-196.367 113.843L-197.229 111.627L-199.159 106.022L-2.92491 -49.568ZM-2.33822 -51.4079L0.574758 -53.7175L-0.461634 -56.7278L-3.28374 -54.5797L-2.33822 -51.4079ZM-4.20894 -53.8755L-3.25638 -50.68L-199.532 104.94L-202.298 96.9056L-4.20894 -53.8755ZM-3.6134 -55.6855L-0.831745 -57.8028L-1.84255 -60.7388L-4.53502 -58.7772L-3.6134 -55.6855ZM-5.46759 -58.0977L-4.53859 -54.9813L-202.669 95.8279L-205.492 87.6307L-5.46759 -58.0977ZM-4.86204 -59.8741L-2.21004 -61.8061L-3.19207 -64.6585L-5.75694 -62.876L-4.86204 -59.8741ZM-6.08332 -63.9709L-3.55927 -65.725L-4.50993 -68.4863L-6.94919 -66.8755L-6.08332 -63.9709ZM-7.27221 -67.959L-4.87373 -69.543L-5.79582 -72.2212L-8.11148 -70.7744L-7.27221 -67.959ZM-8.42972 -71.8419L-6.1546 -73.2633L-7.03845 -75.8305L-9.23387 -74.5394L-8.42972 -71.8419ZM-9.55233 -75.6077L-7.39793 -76.8746L-8.2432 -79.3297L-10.3211 -78.1865L-9.55233 -75.6077ZM-10.6365 -79.2444L-8.59965 -80.3651L-9.40324 -82.6992L-11.3671 -81.6953L-10.6365 -79.2444ZM-11.681 -82.7482L-9.75846 -83.7309L-10.5145 -85.9268L-12.3683 -85.0539L-11.681 -82.7482ZM-12.6809 -86.1026L-10.8688 -86.9558L-11.3632 -88.3918C-11.408 -88.5221 -11.4565 -88.65 -11.5086 -88.7756C-12.1049 -88.688 -12.6993 -88.5226 -13.2781 -88.2738L-13.3225 -88.2547L-12.6809 -86.1026ZM-13.6335 -89.2979C-13.1074 -89.5176 -12.5707 -89.678 -12.0311 -89.7822C-12.246 -90.1212 -12.4894 -90.4365 -12.757 -90.7258C-13.1971 -90.8116 -13.6473 -90.8548 -14.1015 -90.8527C-14.075 -90.7737 -14.0497 -90.694 -14.0257 -90.6137L-13.6335 -89.2979ZM-15.2205 -90.7548C-15.6612 -90.6792 -16.1008 -90.5592 -16.5335 -90.3922L-233.848 -6.47298L-230.758 3.89402L-14.6397 -88.8665L-15.0686 -90.3055C-15.1141 -90.4583 -15.1648 -90.6081 -15.2205 -90.7548ZM-14.5512 -91.9152C-14.4487 -91.9215 -14.3463 -91.9258 -14.244 -91.928C-14.3895 -92.0145 -14.5382 -92.0953 -14.6897 -92.1705C-14.642 -92.0865 -14.5958 -92.0014 -14.5512 -91.9152ZM-167.392 191.316L-168.131 191.534C-168.379 191.608 -168.628 191.665 -168.877 191.707L-170.741 188.558L-174.007 179.072L-167.781 190.316L-167.392 191.316ZM-239.786 -0.854872C-239.531 -2.04924 -238.972 -3.12933 -238.183 -4.00625L-234.857 5.65363L-236.372 6.30363C-236.905 6.53186 -237.407 6.81408 -237.871 7.1429L-239.468 3.03719C-239.955 1.79027 -240.063 0.447443 -239.786 -0.854872ZM-235.943 7.2895L-234.506 6.67301L-231.049 16.7144L-233.668 17.9476L-237.466 8.18434C-237.002 7.82733 -236.492 7.52544 -235.943 7.2895ZM-233.276 18.9558L-230.696 17.7409L-227.34 27.4865L-229.524 28.6025L-233.276 18.9558ZM-229.13 29.6147L-226.985 28.5183L-223.722 37.9968L-225.491 38.9703L-229.13 29.6147ZM-225.096 39.9846L-223.365 39.0321L-220.187 48.262L-221.562 49.0705L-225.096 39.9846ZM-221.166 50.0896L-219.829 49.3034L-216.73 58.3037L-217.728 58.9273L-221.166 50.0896ZM-217.331 59.949L-216.37 59.3488L-213.346 68.1338L-213.983 68.5549L-217.331 59.949ZM-213.584 69.5814L-212.984 69.185L-210.029 77.7663L-210.321 77.9693L-213.584 69.5814ZM-187.067 141.141L-186.643 142.372L-185.454 144.88L-186.02 143.425L-187.024 141.102L-187.067 141.141ZM-185.397 149.31L-187.634 142.812L-188.016 142.005L-188.997 142.899L-185.6 149.501L-185.397 149.31ZM-190.819 133.561L-190.902 133.319L-190.924 133.339L-190.819 133.561ZM-184.786 151.085L-185.01 150.432L-185.085 150.503L-184.786 151.085ZM-183.458 151.623L-181.652 156.869L-181.185 156.418L-183.458 151.623ZM-183.333 159.995L-182.121 158.824L-179.656 165.983L-179.89 166.214L-183.333 159.995ZM-178.866 164.959L-178.804 165.138L-178.784 165.118L-178.866 164.959ZM-179.346 167.196L-179.266 167.117L-179.062 167.71L-179.346 167.196ZM-178.414 166.271L-176.039 173.17L-175.972 173.291L-175.058 172.362L-178.266 166.125L-178.414 166.271ZM-173.475 183.935L-176.443 175.317L-177.773 176.671L-173.475 183.935ZM-168.997 193.622L-165.452 203.916L-163.34 207.277C-162.56 207.947 -161.632 208.43 -160.637 208.684L-161.695 205.965L-168.997 193.622ZM-160.172 209.879C-160.818 209.779 -161.446 209.597 -162.042 209.342L-157.684 216.277L-160.172 209.879ZM-155.068 215.047L-158.103 209.918C-157.848 209.888 -157.594 209.846 -157.34 209.79L-155.068 215.047ZM-146.358 225.782L-154.975 209.033L58.8721 135.967C61.4168 135.094 63.3487 132.92 63.912 130.288C64.2031 128.93 64.1165 127.518 63.6622 126.194L13.8923 -18.3602L17.4351 -21.9653L77.3613 132.103C77.8479 133.35 77.9549 134.698 77.6788 135.995L77.6796 135.991C77.196 138.264 75.618 140.116 73.452 140.951L-145.568 225.529C-145.829 225.63 -146.093 225.714 -146.358 225.782ZM17.0036 -23.0748L13.4975 -19.5071L12.3168 -22.9362L15.7376 -26.3297L17.0036 -23.0748ZM15.3108 -27.427L11.9265 -24.0698L10.7607 -27.4559L14.0601 -30.6424L15.3108 -27.427ZM13.6354 -31.7342L10.3726 -28.5831L9.22322 -31.9215L12.4019 -34.9057L13.6354 -31.7342ZM11.9776 -35.9966L8.83576 -33.0468L7.70267 -36.3378L10.7609 -39.1246L11.9776 -35.9966ZM10.3409 -40.2043L7.31938 -37.4511L6.20388 -40.691L9.14258 -43.2853L10.3409 -40.2043ZM8.72475 -44.3595L5.82286 -41.7977L4.72907 -44.9745L7.5492 -47.3818L8.72475 -44.3595ZM7.13219 -48.4539L4.3491 -46.0781L3.27468 -49.1988L5.9768 -51.4244L7.13219 -48.4539ZM5.56401 -52.4857L2.89881 -50.2904L1.84531 -53.3503L4.43048 -55.4L5.56401 -52.4857ZM4.02183 -56.4506L1.47352 -54.4301L0.44487 -57.4178L2.91446 -59.2976L4.02183 -56.4506ZM2.50732 -60.3444L0.07474 -58.4928L-0.927954 -61.4051L1.42732 -63.1211L2.50732 -60.3444ZM1.0227 -64.1613L-1.29543 -62.4725L-2.26896 -65.3L-0.0263965 -66.8585L1.0227 -64.1613ZM-0.431111 -67.899L-2.63619 -66.3666L-3.5779 -69.1018L-1.44642 -70.5094L-0.431111 -67.899ZM-1.84782 -71.5414L-3.94174 -70.1585L-4.85444 -72.8094L-2.83244 -74.0728L-1.84782 -71.5414ZM-3.22867 -75.0915L-5.21323 -73.8515L-6.08719 -76.3899L-4.17181 -77.5163L-3.22867 -75.0915ZM-4.56925 -78.5381L-6.44668 -77.434L-7.28155 -79.8588L-5.47054 -80.8553L-4.56925 -78.5381ZM-5.86508 -81.8696L-7.638 -80.8942L-8.43064 -83.1963L-6.78153 -84.0393C-6.76134 -84.0496 -6.74113 -84.0598 -6.72088 -84.0699L-5.86508 -81.8696ZM-7.27243 -85.0017L-8.78587 -84.2281L-9.52364 -86.3709C-8.95613 -86.5884 -8.37538 -86.7307 -7.7934 -86.8021C-7.74567 -86.6958 -7.70035 -86.5878 -7.65758 -86.4781L-7.11401 -85.0806C-7.16697 -85.0549 -7.21979 -85.0286 -7.27243 -85.0017ZM-8.35328 -87.8111C-8.86555 -87.7217 -9.3752 -87.5835 -9.87595 -87.3942L-10.3382 -88.7369C-10.3512 -88.7746 -10.3644 -88.8122 -10.3779 -88.8496C-9.93744 -88.843 -9.50062 -88.7953 -9.07298 -88.7088C-8.81057 -88.4329 -8.56941 -88.1331 -8.35328 -87.8111ZM-10.6243 -89.9284C-10.7025 -89.9271 -10.7809 -89.9247 -10.8593 -89.9211C-10.8946 -89.986 -10.9308 -90.0501 -10.9677 -90.1137C-10.8516 -90.0552 -10.7371 -89.9934 -10.6243 -89.9284ZM-158.714 208.885C-158.402 208.872 -158.09 208.837 -157.777 208.778L-158.551 206.987L-163.88 197.362L-160.711 205.509L-158.714 208.885ZM-238.322 8.96214C-239.189 9.89033 -239.804 11.0469 -240.076 12.319C-240.38 13.7568 -240.232 15.2322 -239.648 16.5874L-238.097 20.1758C-237.692 19.8896 -237.258 19.6366 -236.798 19.4209L-234.647 18.4085L-238.322 8.96214ZM-234.255 19.4167L-236.338 20.3975C-236.811 20.6198 -237.252 20.8871 -237.657 21.1936L-233.563 30.6671L-230.49 29.0965L-234.255 19.4167ZM-230.096 30.1086L-233.133 31.661L-229.113 40.9633L-226.445 39.4953L-230.096 30.1086ZM-226.051 40.5097L-228.684 41.9582L-224.79 50.9685L-222.505 49.625L-226.051 40.5097ZM-222.109 50.6441L-224.358 51.967L-220.58 60.7093L-218.66 59.5097L-222.109 50.6441ZM-218.263 60.5314L-220.148 61.7093L-216.478 70.2024L-214.905 69.1639L-218.263 60.5314ZM-214.506 70.1903L-216.044 71.206L-212.475 79.4658L-211.234 78.6033L-214.506 70.1903ZM-210.83 79.6412L-212.037 80.4797L-208.559 88.5269L-207.635 87.8541L-210.83 79.6412ZM-172.876 174.236L-173.498 172.636L-172.346 175.068L-171.808 176.312L-172.876 174.236ZM-179.966 158.989L-177.917 164.258L-177.978 164.318L-181.241 157.974L-180.697 157.448L-179.966 158.989ZM-173.856 174.697L-170.699 182.815L-175.424 174.28L-174.536 173.376L-173.856 174.697ZM-154.638 221.122L-158.306 211.691L-151.672 222.905L-150.543 225.518C-151.355 225.201 -152.106 224.731 -152.749 224.129L-154.638 221.122ZM-151.352 226.351C-150.909 226.554 -150.447 226.716 -149.974 226.835L-147.61 232.305L-151.352 226.351ZM-147.951 227.076L-146.662 229.254L-147.698 227.069C-147.745 227.071 -147.791 227.073 -147.838 227.074C-147.876 227.075 -147.913 227.076 -147.951 227.076ZM-145.851 226.769L-139.106 239.879L-137.326 243.095C-136.312 243.131 -135.275 242.95 -134.283 242.524L88.3815 146.961C90.492 146.054 92.0356 144.176 92.5145 141.931L92.5137 141.936C92.8229 140.499 92.6745 139.024 92.0861 137.663L21.3719 -25.9711L18.2649 -22.8095L78.369 131.717C78.929 133.16 79.0585 134.719 78.7374 136.227C78.1757 138.849 76.3449 140.997 73.8424 141.964L-145.177 226.542C-145.4 226.628 -145.625 226.704 -145.851 226.769ZM17.8333 -23.9191L20.907 -27.0469L19.5728 -30.1342L16.5732 -27.1586L17.8333 -23.9191ZM16.1464 -28.256L19.1128 -31.1987L17.7946 -34.2491L14.902 -31.4555L16.1464 -28.256ZM14.4773 -32.5473L17.3366 -35.3088L16.0363 -38.3178L13.2502 -35.7021L14.4773 -32.5473ZM12.8259 -36.793L15.5785 -39.3773L14.2957 -42.3456L11.616 -39.9037L12.8259 -36.793ZM11.196 -40.9834L13.8423 -43.3947L12.5787 -46.3188L10.0046 -44.0463L11.196 -40.9834ZM9.58681 -45.1206L12.1273 -47.3634L10.8877 -50.2317L8.41863 -48.124L9.58681 -45.1206ZM8.0016 -49.1961L10.4369 -51.275L9.21841 -54.0945L6.85389 -52.1469L8.0016 -49.1961ZM6.44109 -53.2082L8.77182 -55.128L7.57635 -57.8943L5.3156 -56.1018L6.44109 -53.2082ZM4.90695 -57.1524L7.13391 -58.9181L5.96608 -61.6204L3.80799 -59.9778L4.90695 -57.1524ZM3.40087 -61.0245L5.52494 -62.6413L4.38605 -65.2767L2.32968 -63.7785L3.40087 -61.0245ZM1.92507 -64.8187L3.94729 -66.292L2.84124 -68.8514L0.885257 -67.4921L1.92507 -64.8187ZM0.480529 -68.5326L2.40195 -69.8679L1.33187 -72.3441L-0.525015 -71.1178L0.480529 -68.5326ZM-0.92641 -72.1499L0.895763 -73.3533L-0.14172 -75.754L-1.90078 -74.6549L-0.92641 -72.1499ZM-2.29699 -75.6736L-0.572552 -76.751L-1.56559 -79.0489L-3.2293 -78.0705L-2.29699 -75.6736ZM-3.62677 -79.0924L-1.99824 -80.0501L-2.93556 -82.219C-3.13502 -82.1299 -3.33179 -82.032 -3.52536 -81.9255L-4.5166 -81.3801L-3.62677 -79.0924ZM-4.91115 -82.3945L-4.04844 -82.8692C-3.82366 -82.9928 -3.5952 -83.1063 -3.36358 -83.2095L-3.95117 -84.5692C-3.98999 -84.6591 -4.03046 -84.7478 -4.07255 -84.8352C-4.62677 -84.7805 -5.1804 -84.6642 -5.72352 -84.4831L-4.91115 -82.3945ZM-6.1157 -85.4914C-5.63881 -85.6537 -5.15452 -85.772 -4.66801 -85.848C-4.88228 -86.1513 -5.11822 -86.4343 -5.37272 -86.6957C-5.78985 -86.7841 -6.21553 -86.8368 -6.64487 -86.8519L-6.1157 -85.4914ZM-7.15823 -87.9322C-7.10167 -87.9338 -7.04514 -87.9349 -6.98864 -87.9354C-7.07097 -87.9816 -7.15416 -88.0261 -7.23817 -88.0689C-7.21112 -88.0237 -7.18447 -87.9781 -7.15823 -87.9322ZM-148.21 225.99C-148.342 225.987 -148.475 225.979 -148.607 225.968L-150.674 222.474L-153.153 216.737L-149.277 223.737L-148.21 225.99ZM-240.381 25.4952C-240.092 24.1373 -239.442 22.9223 -238.515 21.9559L-234.535 31.1641L-237.223 32.5382C-237.626 32.7441 -238.008 32.9785 -238.368 33.2385L-239.833 30.1463C-240.53 28.6804 -240.719 27.0726 -240.381 25.4952ZM-236.732 33.5006L-234.106 32.1579L-230.072 41.4909L-233.55 43.4042L-237.896 34.2338C-237.535 33.9577 -237.146 33.7119 -236.732 33.5006ZM-233.087 44.3809L-229.642 42.4858L-225.736 51.5249L-228.837 53.3483L-233.087 44.3809ZM-228.372 54.3275L-225.304 52.5234L-221.515 61.293L-224.259 63.0074L-228.372 54.3275ZM-223.794 63.9873L-221.082 62.293L-217.401 70.812L-219.806 72.4007L-223.794 63.9873ZM-219.341 73.3831L-216.967 71.8155L-213.387 80.0999L-215.471 81.5482L-219.341 73.3831ZM-215.001 82.5398L-212.949 81.1137L-209.461 89.1842L-211.238 90.4789L-215.001 82.5398ZM-210.767 91.4738L-209.021 90.2022L-205.619 98.0736L-207.103 99.2031L-210.767 91.4738ZM-206.63 100.203L-205.177 99.0971L-201.856 106.783L-203.059 107.736L-206.63 100.203ZM-158 205.522L-157.545 206.575L-156.622 208.241L-156.871 207.716L-158 205.522ZM-147.278 230.332L-143.819 238.336L-142.164 240.969C-141.676 241.465 -141.121 241.883 -140.52 242.213L-141.613 239.907L-147.278 230.332ZM-139.809 243.714C-140.1 243.612 -140.384 243.493 -140.662 243.359L-137.875 247.793L-139.809 243.714ZM-127.973 259.988L-136.729 244.173C-135.766 244.132 -134.796 243.919 -133.861 243.518L88.805 147.951C91.2378 146.909 93.0185 144.743 93.5692 142.157C93.9249 140.5 93.7517 138.799 93.0767 137.235L22.187 -26.8005L24.9133 -29.5747L106.816 143.223C107.508 144.684 107.696 146.296 107.359 147.874L107.359 147.869C106.878 150.128 105.405 151.988 103.316 152.971L-122.995 259.525C-124.61 260.285 -126.366 260.405 -127.973 259.988ZM24.4181 -30.6196L21.7221 -27.8763L20.3941 -30.949L23.0249 -33.5588L24.4181 -30.6196ZM22.5347 -34.5932L19.9341 -32.0135L18.6224 -35.0486L21.1581 -37.4975L22.5347 -34.5932ZM20.6698 -38.5278L18.1645 -36.1083L16.871 -39.1015L19.3117 -41.393L20.6698 -38.5278ZM18.8232 -42.4237L16.4131 -40.1609L15.1375 -43.1126L17.4835 -45.2503L18.8232 -42.4237ZM16.9994 -46.2715L14.6841 -44.1618L13.4279 -47.0685L15.6795 -49.0563L16.9994 -46.2715ZM15.1973 -50.0737L12.9765 -48.1131L11.7448 -50.9632L13.9026 -52.8052L15.1973 -50.0737ZM13.4206 -53.8221L11.2939 -52.0066L10.0836 -54.8071L12.1479 -56.5074L13.4206 -53.8221ZM11.6701 -57.5153L9.63696 -55.8406L8.45006 -58.587L10.4213 -60.15L11.6701 -57.5153ZM9.94779 -61.1491L8.00762 -59.6108L6.84878 -62.2923L8.72795 -63.7227L9.94779 -61.1491ZM8.25545 -64.7196L6.40762 -63.3131L5.27817 -65.9266L7.06599 -67.2292L8.25545 -64.7196ZM6.59567 -68.2214L4.8394 -66.9419L3.74327 -69.4783L5.44081 -70.658L6.59567 -68.2214ZM4.9695 -71.6523L3.30397 -70.4948L2.24438 -72.9467L3.85262 -74.0087L4.9695 -71.6523ZM3.38435 -74.9967L1.80825 -73.9559L0.781797 -76.331L2.30177 -77.2807L3.38435 -74.9967ZM1.83878 -78.2576L0.350931 -77.328L-0.630424 -79.5988L-0.274713 -79.808C0.0872217 -80.021 0.460951 -80.2041 0.843614 -80.3572L1.83878 -78.2576ZM-0.829161 -80.7376L-1.0631 -80.6L-1.92346 -82.5908C-1.41044 -82.7401 -0.885429 -82.8359 -0.355306 -82.8773C-0.317677 -82.8042 -0.281125 -82.7303 -0.245694 -82.6554L0.380399 -81.3345C-0.0330663 -81.1662 -0.437187 -80.9671 -0.829161 -80.7376ZM-0.988302 -83.8938C-1.44968 -83.8284 -1.90627 -83.7264 -2.35453 -83.5883L-2.90417 -84.8601C-2.48979 -84.8371 -2.07899 -84.7804 -1.67594 -84.6914C-1.42986 -84.4446 -1.1998 -84.1784 -0.988302 -83.8938ZM-3.35894 -85.9514C-3.373 -85.9514 -3.38706 -85.9513 -3.40111 -85.9512C-3.41802 -85.9511 -3.43491 -85.9509 -3.4518 -85.9507L-3.4638 -85.9707L-3.47601 -85.9909C-3.48281 -86.0022 -3.48967 -86.0134 -3.49653 -86.0246C-3.46656 -86.0091 -3.43666 -85.9933 -3.40688 -85.9773C-3.39087 -85.9688 -3.3749 -85.9601 -3.35894 -85.9514ZM-238.741 34.9857C-239.715 35.9924 -240.4 37.2603 -240.7 38.669C-241.063 40.3678 -240.822 42.1537 -240.024 43.7091L-238.681 46.321C-238.355 46.079 -238.011 45.8579 -237.65 45.6601L-234.502 43.9284L-238.741 34.9857ZM-234.04 44.9051L-237.127 46.6038C-237.498 46.8082 -237.849 47.0405 -238.178 47.2974L-233.619 56.1606L-229.776 53.9007L-234.04 44.9051ZM-229.312 54.8799L-233.124 57.1219L-228.676 65.7678L-225.185 63.5863L-229.312 54.8799ZM-224.721 64.5662L-228.182 66.729L-223.88 75.091L-220.721 73.0046L-224.721 64.5662ZM-220.255 73.987L-223.385 76.0537L-219.219 84.1526L-216.374 82.1758L-220.255 73.987ZM-215.904 83.1675L-218.719 85.1237L-214.676 92.9832L-212.131 91.129L-215.904 83.1675ZM-211.659 92.124L-214.175 93.9569L-210.246 101.595L-207.985 99.8744L-211.659 92.124ZM-207.512 100.874L-209.743 102.572L-205.919 110.004L-203.931 108.428L-207.512 100.874ZM-203.456 109.43L-205.416 110.983L-201.689 118.227L-199.961 116.804L-203.456 109.43ZM-199.485 117.809L-201.184 119.209L-197.55 126.274L-196.071 125.012L-199.485 117.809ZM-140.641 239.432L-140.956 238.768L-140.134 240.251L-139.989 240.534L-140.641 239.432ZM-133.006 255.541L-135.592 250.084L-131.637 256.769L-130.661 258.666C-130.985 258.414 -131.289 258.134 -131.569 257.826L-133.006 255.541ZM-129.96 260.386C-129.879 260.428 -129.797 260.468 -129.715 260.506L-128.946 262.001L-129.96 260.386ZM-127.287 261.227L-120.606 273.295L-118.716 276.489C-116.6 277.596 -113.994 277.696 -111.712 276.529L118.244 158.986C120.286 157.941 121.729 156.057 122.207 153.817L122.212 153.817C122.575 152.118 122.335 150.328 121.541 148.778L28.1097 -32.8272L25.719 -30.3945L107.792 142.764C108.588 144.445 108.805 146.289 108.418 148.1C107.867 150.69 106.174 152.823 103.779 153.953L-122.536 260.506C-124.072 261.229 -125.719 261.446 -127.287 261.227ZM25.2238 -31.4395L27.5866 -33.8438L26.1423 -36.6512L23.8373 -34.3647L25.2238 -31.4395ZM23.347 -35.3991L25.6242 -37.6582L24.197 -40.4324L21.9774 -38.2887L23.347 -35.3991ZM21.489 -39.319L23.6808 -41.4357L22.2726 -44.1728L20.1382 -42.1689L21.489 -39.319ZM19.6497 -43.1996L21.7559 -45.1771L20.3666 -47.8775L18.3175 -46.0103L19.6497 -43.1996ZM17.8335 -47.0315L19.8545 -48.873L18.4857 -51.5336L16.5215 -49.7996L17.8335 -47.0315ZM16.0393 -50.817L17.9751 -52.526L16.6325 -55.1356L14.7529 -53.531L16.0393 -50.817ZM14.2709 -54.5479L16.1219 -56.1281L14.802 -58.6936L13.0068 -57.2149L14.2709 -54.5479ZM12.5291 -58.2228L14.2956 -59.6779L13.0006 -62.1951L11.2894 -60.8383L12.5291 -58.2228ZM10.8159 -61.8374L12.4983 -63.1713L11.2335 -65.6299L9.6056 -64.3908L10.8159 -61.8374ZM9.1331 -65.3876L10.732 -66.6046L9.49881 -69.0016L7.95371 -67.8759L9.1331 -65.3876ZM7.48341 -68.8682L8.99927 -69.9726L7.80231 -72.2991L6.33916 -71.2823L7.48341 -68.8682ZM5.86786 -72.2767L7.30133 -73.2729L6.1442 -75.522L4.76221 -74.6094L5.86786 -72.2767ZM4.2939 -75.5974L5.61896 -76.4725L5.64606 -76.4903L4.61638 -78.4917C4.14149 -78.3237 3.67595 -78.1107 3.22557 -77.8514L4.2939 -75.5974ZM2.76436 -78.8245C3.20545 -79.0732 3.6591 -79.2828 4.1211 -79.4544L3.45596 -80.7472C3.42607 -80.8053 3.39555 -80.8629 3.36438 -80.9199C2.8631 -80.8906 2.3662 -80.8145 1.87901 -80.6924L2.76436 -78.8245ZM1.40885 -81.6843C1.83131 -81.8008 2.26059 -81.8867 2.69391 -81.9416C2.48308 -82.2123 2.25588 -82.466 2.01447 -82.7018C1.62571 -82.7904 1.2342 -82.8493 0.842671 -82.8789L1.40885 -81.6843ZM0.256344 -83.9813L0.258355 -83.9813L0.255342 -83.9829L0.256344 -83.9813ZM-241.019 51.8381C-240.71 50.394 -240.007 49.0871 -239.008 48.0465L-234.552 56.7093L-238.076 58.782C-238.404 58.9746 -238.719 59.1866 -239.017 59.4163L-240.209 57.2632C-241.125 55.6058 -241.411 53.6819 -241.019 51.8381ZM-237.527 59.7107L-234.057 57.6706L-229.596 66.3424L-233.747 68.9357L-238.487 60.3745C-238.185 60.1317 -237.864 59.9096 -237.527 59.7107ZM-233.224 69.8795L-229.102 67.3037L-224.788 75.6902L-228.61 78.2145L-233.224 69.8795ZM-228.087 79.1588L-224.292 76.6529L-220.114 84.7751L-223.626 87.2159L-228.087 79.1588ZM-223.099 88.1678L-219.615 85.7462L-215.56 93.6276L-218.778 95.9722L-223.099 88.1678ZM-218.25 96.9262L-215.059 94.6014L-211.12 102.26L-214.059 104.497L-218.25 96.9262ZM-213.529 105.454L-210.617 103.238L-206.783 110.689L-209.457 112.809L-213.529 105.454ZM-208.927 113.767L-206.28 111.668L-202.544 118.931L-204.964 120.925L-208.927 113.767ZM-204.433 121.884L-202.039 119.913L-198.395 126.996L-200.573 128.855L-204.433 121.884ZM-200.039 129.82L-197.887 127.983L-194.328 134.901L-196.275 136.619L-200.039 129.82ZM-122.287 272.573L-122.223 272.697L-122.06 272.957L-122.287 272.573ZM-109.029 292.862L-117.809 278.022C-115.701 278.69 -113.34 278.563 -111.224 277.482L118.731 159.943C121.064 158.749 122.716 156.6 123.263 154.037C123.68 152.101 123.406 150.054 122.494 148.286L28.906 -33.6375L31.0052 -35.7735L136.257 154.331C137.174 155.984 137.459 157.913 137.067 159.756L137.071 159.757C136.596 161.983 135.177 163.891 133.179 164.992L-100.422 293.521C-103.246 295.077 -106.621 294.71 -109.029 292.862ZM30.4566 -36.7643L28.3829 -34.6542L26.9456 -37.4482L28.9675 -39.454L30.4566 -36.7643ZM28.424 -40.4356L26.4276 -38.4551L25.0077 -41.2153L26.9525 -43.0935L28.424 -40.4356ZM26.4106 -44.0722L24.4914 -42.2187L23.091 -44.9411L24.9587 -46.6946L26.4106 -44.0722ZM24.4161 -47.6746L22.5743 -45.9454L21.193 -48.6305L22.9836 -50.2621L24.4161 -47.6746ZM22.4455 -51.2339L20.6809 -49.626L19.3204 -52.2705L21.034 -53.7834L22.4455 -51.2339ZM20.4973 -54.7527L18.8099 -53.263L17.4761 -55.8556L19.113 -57.253L20.4973 -54.7527ZM18.576 -58.223L16.9655 -56.8482L15.6548 -59.396L17.2151 -60.6811L18.576 -58.223ZM16.6822 -61.6436L15.1484 -60.3803L13.8631 -62.8789L15.3469 -64.0554L16.6822 -61.6436ZM14.818 -65.0106L13.3608 -63.8552L12.1061 -66.2941L13.5141 -67.3658L14.818 -65.0106ZM12.9857 -68.3201L11.6047 -67.2689L10.3822 -69.6452L11.7146 -70.6159L12.9857 -68.3201ZM11.188 -71.5671L9.8827 -70.6162L8.69705 -72.9209L9.46785 -73.4566C9.63074 -73.57 9.79616 -73.6772 9.96378 -73.7783L11.188 -71.5671ZM8.84362 -74.3447L8.1961 -73.8947L7.07615 -76.0718C7.50252 -76.2894 7.94315 -76.4703 8.39405 -76.6135L9.43803 -74.7279C9.23696 -74.608 9.03869 -74.4803 8.84362 -74.3447ZM7.86172 -77.575C7.42506 -77.4257 6.99744 -77.2448 6.58167 -77.033L5.67779 -78.79C6.14575 -78.8888 6.61843 -78.9466 7.09067 -78.9648C7.11489 -78.9229 7.1388 -78.8807 7.16231 -78.8382L7.86172 -77.575ZM6.38699 -79.9892C5.97951 -79.9449 5.57318 -79.874 5.1706 -79.7759L4.59314 -80.8984C4.96991 -80.8632 5.34672 -80.8017 5.72138 -80.7136C5.95745 -80.4871 6.17975 -80.2453 6.38699 -79.9892ZM-239.306 61.1307C-240.319 62.2039 -241.034 63.5448 -241.347 65.0103C-241.774 67.0029 -241.434 69.0664 -240.396 70.8267L-239.387 72.5314C-239.103 72.3063 -238.805 72.0957 -238.493 71.9008L-234.666 69.5101L-239.306 61.1307ZM-234.144 70.4539L-237.921 72.814C-238.242 73.0144 -238.546 73.2335 -238.832 73.4697L-233.942 81.7356L-229.516 78.8128L-234.144 70.4539ZM-228.993 79.7571L-233.393 82.6628L-228.638 90.6991L-224.52 87.8367L-228.993 79.7571ZM-223.993 88.7886L-228.086 91.6332L-223.488 99.4035L-219.66 96.6143L-223.993 88.7886ZM-219.132 97.5682L-222.935 100.339L-218.482 107.864L-214.929 105.159L-219.132 97.5682ZM-214.399 106.116L-217.927 108.802L-213.609 116.101L-210.316 113.491L-214.399 106.116ZM-209.786 114.448L-213.054 117.039L-208.858 124.132L-205.813 121.624L-209.786 114.448ZM-205.282 122.584L-208.302 125.071L-204.221 131.969L-201.413 129.572L-205.282 122.584ZM-200.878 130.537L-203.662 132.913L-199.687 139.632L-197.105 137.352L-200.878 130.537ZM-196.568 138.321L-199.127 140.58L-195.251 147.13L-192.885 144.974L-196.568 138.321ZM-192.345 145.95L-194.687 148.084L-190.903 154.48L-188.744 152.453L-192.345 145.95ZM-107.891 294.785C-105.41 295.896 -102.455 295.875 -99.8996 294.469L133.707 165.936C135.976 164.688 137.589 162.518 138.131 159.984C138.58 157.888 138.252 155.696 137.21 153.814L31.7969 -36.5791L33.6369 -38.4514L150.982 159.891C152.021 161.646 152.36 163.714 151.933 165.707L151.933 165.712C151.463 167.929 150.07 169.861 148.112 171.011L-89.1343 310.526C-92.752 312.653 -97.3673 311.656 -99.8127 308.354L-100.673 306.985L-107.891 294.785ZM31.2483 -37.5699L33.0649 -39.4183L31.5362 -42.0021L29.7664 -40.2465L31.2483 -37.5699ZM29.2229 -41.2281L30.9692 -42.9605L29.4586 -45.5139L27.7589 -43.8724L29.2229 -41.2281ZM27.2171 -44.851L28.8931 -46.4697L27.4026 -48.989L25.7731 -47.4591L27.2171 -44.851ZM25.2304 -48.4392L26.8361 -49.9466L25.3653 -52.4324L23.8062 -51.0117L25.2304 -48.4392ZM23.2681 -51.9835L24.8033 -53.3823L23.3542 -55.8317L21.8653 -54.5172L23.2681 -51.9835ZM21.3286 -55.4866L22.7934 -56.7797L21.3723 -59.1816L19.9535 -57.9704L21.3286 -55.4866ZM19.4164 -58.9404L20.8108 -60.1307L19.4137 -62.4921L18.065 -61.3812L19.4164 -58.9404ZM17.5321 -62.3437L18.8562 -63.4344L17.4856 -65.7511L16.2069 -64.7373L17.5321 -62.3437ZM15.6781 -65.6924L16.9321 -66.6867L15.5937 -68.9488L14.3847 -68.0285L15.6781 -65.6924ZM13.8563 -68.9828L15.0404 -69.8841L13.78 -72.0144C13.413 -71.817 13.0551 -71.5925 12.7091 -71.3405L12.5964 -71.2584L13.8563 -68.9828ZM12.0698 -72.2096L12.0723 -72.2114C12.4468 -72.4842 12.8337 -72.7281 13.2302 -72.9437L12.172 -74.7324C11.7488 -74.6141 11.3314 -74.4637 10.9232 -74.2806L12.0698 -72.2096ZM10.3967 -75.2316C10.7919 -75.4128 11.1951 -75.5664 11.6037 -75.6929L10.8694 -76.934C10.8632 -76.9446 10.857 -76.9551 10.8507 -76.9656C10.8408 -76.9823 10.8308 -76.9989 10.8208 -77.0154C10.3706 -77.006 9.92336 -76.9616 9.48254 -76.8827L10.3967 -75.2316ZM8.93363 -77.8741C9.31048 -77.9562 9.69205 -78.0158 10.0767 -78.0524C9.87624 -78.2901 9.66309 -78.5151 9.43823 -78.7267C9.08197 -78.8139 8.72014 -78.8781 8.35521 -78.9188L8.93363 -77.8741ZM-241.68 78.1771C-241.358 76.6715 -240.652 75.3197 -239.635 74.226L-234.841 82.3295L-238.919 85.0228C-239.218 85.2205 -239.505 85.4326 -239.777 85.6581L-240.577 84.3864C-241.744 82.5271 -242.136 80.3194 -241.68 78.1771ZM-238.32 85.9164L-234.292 83.2567L-229.525 91.3151L-234.186 94.5546L-239.199 86.5787C-238.922 86.3417 -238.629 86.1205 -238.32 85.9164ZM-233.609 95.472L-228.972 92.2492L-224.363 100.04L-228.736 103.226L-233.609 95.472ZM-228.159 104.145L-223.809 100.976L-219.345 108.521L-223.446 111.643L-228.159 104.145ZM-222.868 112.563L-218.79 109.459L-214.461 116.777L-218.304 119.824L-222.868 112.563ZM-217.726 120.744L-213.906 117.715L-209.699 124.825L-213.298 127.789L-217.726 120.744ZM-212.719 128.71L-209.143 125.765L-205.053 132.679L-208.419 135.552L-212.719 128.71ZM-207.838 136.477L-204.494 133.623L-200.509 140.358L-203.654 143.134L-207.838 136.477ZM-203.071 144.062L-199.949 141.306L-196.065 147.871L-198.997 150.543L-203.071 144.062ZM-198.41 151.477L-195.5 148.825L-191.708 155.235L-194.437 157.798L-198.41 151.477ZM-193.851 158.732L-191.143 156.19L-187.436 162.455L-189.971 164.904L-193.851 158.732ZM-189.384 165.838L-186.871 163.411L-183.244 169.542L-185.592 171.872L-189.384 165.838ZM-89.4401 324.858L-97.8254 311.516C-95.0466 313.088 -91.5254 313.181 -88.5837 311.45L148.663 171.935C150.879 170.63 152.46 168.44 152.994 165.929C153.474 163.674 153.089 161.333 151.911 159.341L34.4197 -39.248L36.0308 -40.8874L165.709 165.441C166.88 167.301 167.269 169.503 166.811 171.65L166.816 171.651C166.343 173.892 165.002 175.799 163.057 177.014L-77.8348 327.519C-81.7721 329.976 -86.9719 328.783 -89.4401 324.858ZM35.437 -41.8322L33.8476 -40.2149L32.3264 -42.7861L33.8732 -44.3205L35.437 -41.8322ZM33.2844 -45.2572L31.7595 -43.7444L30.2566 -46.2846L31.739 -47.7162L33.2844 -45.2572ZM31.1515 -48.6508L29.6911 -47.2404L28.2088 -49.7459L29.6267 -51.077L31.1515 -48.6508ZM29.0379 -52.0138L27.6423 -50.7035L26.1801 -53.1749L27.5332 -54.4079L29.0379 -52.0138ZM26.949 -55.3375L25.6181 -54.1248L24.178 -56.5589L25.4664 -57.6964L26.949 -55.3375ZM24.8831 -58.6245L23.6171 -57.5069L22.2056 -59.8928L23.4294 -60.9375L24.8831 -58.6245ZM22.845 -61.8673L21.644 -60.842L20.2569 -63.1866L21.4158 -64.1412L22.845 -61.8673ZM20.8354 -65.0647L19.6994 -64.1289L18.3392 -66.4279L19.1964 -67.1076C19.2755 -67.1702 19.3553 -67.2316 19.4358 -67.2915L20.8354 -65.0647ZM18.5258 -67.9503L17.7857 -67.3635L16.469 -69.5889C16.8304 -69.8285 17.2049 -70.0418 17.59 -70.2284L18.861 -68.2061C18.748 -68.1232 18.6363 -68.0379 18.5258 -67.9503ZM17.012 -71.1481C16.6375 -70.9613 16.2725 -70.7515 15.9186 -70.5193L14.7638 -72.4712C15.151 -72.624 15.5453 -72.7492 15.944 -72.8473L17.012 -71.1481ZM15.3425 -73.8044C14.9595 -73.696 14.5807 -73.5648 14.2081 -73.4105L13.2864 -74.9684C13.7066 -75.0299 14.1294 -75.0612 14.5513 -75.063C14.5582 -75.0522 14.5651 -75.0414 14.5719 -75.0305L15.3425 -73.8044ZM13.7672 -76.1093C13.4092 -76.0805 13.0519 -76.0324 12.6968 -75.965L12.1166 -76.9456C12.3307 -76.9181 12.5448 -76.8825 12.7584 -76.8389C12.8857 -76.8129 13.012 -76.7842 13.1372 -76.7529C13.357 -76.5514 13.5674 -76.3367 13.7672 -76.1093ZM-239.991 87.35C-240.999 88.4667 -241.699 89.8321 -242.021 91.3423C-242.509 93.639 -242.067 95.9855 -240.762 97.9453L-240.194 98.8012C-239.923 98.5658 -239.638 98.3438 -239.339 98.1361L-235.075 95.1722L-239.991 87.35ZM-234.498 96.0895L-238.72 99.0234C-239.026 99.2359 -239.316 99.4654 -239.59 99.7105L-234.476 107.409L-229.611 103.864L-234.498 96.0895ZM-229.034 104.783L-233.877 108.311L-228.904 115.797L-224.31 112.3L-229.034 104.783ZM-223.731 113.22L-228.304 116.701L-223.496 123.94L-219.156 120.5L-223.731 113.22ZM-218.578 121.419L-222.896 124.843L-218.237 131.857L-214.139 128.482L-218.578 121.419ZM-213.561 129.403L-217.637 132.76L-213.118 139.564L-209.25 136.262L-213.561 129.403ZM-208.668 137.186L-212.516 140.47L-208.125 147.081L-204.475 143.859L-208.668 137.186ZM-203.892 144.787L-207.521 147.99L-203.251 154.419L-199.809 151.283L-203.892 144.787ZM-199.222 152.216L-202.643 155.334L-198.483 161.596L-195.24 158.552L-199.222 152.216ZM-194.654 159.485L-197.876 162.511L-193.818 168.619L-190.766 165.671L-194.654 159.485ZM-190.179 166.606L-193.211 169.534L-189.248 175.499L-186.379 172.652L-190.179 166.606ZM-185.79 173.588L-188.64 176.415L-184.769 182.243L-182.074 179.501L-185.79 173.588ZM-87.9259 328.038L-78.6073 342.067C-75.9565 346.056 -70.5473 347.154 -66.5455 344.515L177.992 183.02C179.901 181.76 181.216 179.834 181.693 177.599L181.688 177.603C182.176 175.301 181.733 172.959 180.429 170.995L38.2139 -43.1088L36.8095 -41.6798L166.626 164.87C167.942 166.967 168.389 169.455 167.871 171.877C167.33 174.406 165.823 176.555 163.629 177.927L-77.2639 328.437C-80.6507 330.552 -84.8771 330.264 -87.9259 328.038ZM36.2157 -42.6246L37.5999 -44.0331L36.0046 -46.4348L34.6596 -45.1005L36.2157 -42.6246ZM34.0708 -46.0373L35.3956 -47.3515L33.8191 -49.7251L32.5334 -48.4835L34.0708 -46.0373ZM31.946 -49.4181L33.2113 -50.6401L31.6557 -52.982L30.4296 -51.8308L31.946 -49.4181ZM29.8408 -52.7676L31.0463 -53.8994L29.5113 -56.2104L28.345 -55.1476L29.8408 -52.7676ZM27.7608 -56.0771L28.9064 -57.121L27.3939 -59.398L26.2875 -58.4213L27.7608 -56.0771ZM25.7042 -59.3494L26.7897 -60.3077L25.3068 -62.5402L24.2602 -61.6468L25.7042 -59.3494ZM23.6759 -62.5765L24.7013 -63.4519L23.2718 -65.6038C22.9868 -65.4131 22.7096 -65.2071 22.4415 -64.986L22.257 -64.8341L23.6759 -62.5765ZM21.6766 -65.7576L21.7498 -65.8178C22.0482 -66.0633 22.3567 -66.2921 22.6741 -66.5037L21.3947 -68.4298C21.033 -68.272 20.6796 -68.0918 20.3365 -67.8898L21.6766 -65.7576ZM19.7628 -68.8026C20.0967 -69.0008 20.4395 -69.1802 20.7897 -69.3406L19.7128 -70.9619C19.3367 -70.8801 18.966 -70.7756 18.6025 -70.6487L19.7628 -68.8026ZM18.0139 -71.5852C18.3619 -71.716 18.7162 -71.8282 19.0755 -71.9214L18.2821 -73.1158C17.885 -73.1206 17.487 -73.1002 17.0907 -73.0541L18.0139 -71.5852ZM16.4616 -74.0551C16.7937 -74.1103 17.1274 -74.1491 17.4615 -74.1718C17.2691 -74.3837 17.0671 -74.5853 16.8562 -74.7759C16.5367 -74.8582 16.2129 -74.923 15.8865 -74.9701L16.4616 -74.0551ZM-242.368 104.507C-242.048 103.006 -241.357 101.633 -240.367 100.498L-235.352 108.047L-239.761 111.259C-240.064 111.479 -240.353 111.714 -240.627 111.964L-240.944 111.51C-242.362 109.478 -242.881 106.925 -242.368 104.507ZM-239.12 112.131L-234.753 108.949L-229.768 116.455L-234.807 120.29L-240.001 112.859C-239.724 112.6 -239.43 112.356 -239.12 112.131ZM-234.187 121.178L-229.168 117.358L-224.347 124.615L-229.133 128.41L-234.187 121.178ZM-228.513 129.296L-223.748 125.518L-219.077 132.55L-223.623 136.294L-228.513 129.296ZM-223.003 137.18L-218.477 133.453L-213.948 140.272L-218.266 143.958L-223.003 137.18ZM-217.644 144.848L-213.346 141.179L-208.944 147.805L-213.046 151.426L-217.644 144.848ZM-212.423 152.318L-208.341 148.714L-204.061 155.157L-207.957 158.707L-212.423 152.318ZM-207.33 159.605L-203.453 156.072L-199.284 162.349L-202.984 165.823L-207.33 159.605ZM-202.358 166.719L-198.677 163.263L-194.611 169.384L-198.124 172.777L-202.358 166.719ZM-197.497 173.674L-194.003 170.299L-190.033 176.277L-193.367 179.584L-197.497 173.674ZM-192.739 180.482L-189.424 177.193L-185.545 183.033L-188.707 186.251L-192.739 180.482ZM-188.076 187.154L-184.932 183.956L-81.9174 339.047L-188.076 187.154ZM-67.7754 359.281L-78.47 343.979C-75.2658 347.368 -69.9716 348.077 -65.9534 345.422L178.585 183.927C180.733 182.509 182.208 180.344 182.747 177.829C183.298 175.243 182.798 172.607 181.332 170.402L38.9893 -43.8978L40.2132 -45.1432L195.156 176.545C196.574 178.577 197.093 181.125 196.575 183.547L196.58 183.548C196.103 185.779 194.809 187.727 192.931 189.031L-55.2517 361.512C-59.3196 364.343 -64.9381 363.341 -67.7754 359.281ZM39.5805 -46.0484L38.3753 -44.8221L36.7879 -47.2119L37.9568 -48.3715L39.5805 -46.0484ZM37.3291 -49.2696L36.179 -48.1286L34.6107 -50.4897L35.7245 -51.5654L37.3291 -49.2696ZM35.0978 -52.462L34.003 -51.4047L32.4562 -53.7334L33.5147 -54.7272L35.0978 -52.462ZM32.886 -55.6267L31.8468 -54.6509L30.3209 -56.9481L31.3237 -57.8619L32.886 -55.6267ZM30.6996 -58.755L29.716 -57.8588L28.2132 -60.1213L28.9289 -60.7531C29.0061 -60.8213 29.0841 -60.8882 29.1628 -60.9538L30.6996 -58.755ZM28.2089 -61.5607L27.609 -61.031L26.1452 -63.2348C26.4565 -63.4724 26.7786 -63.6913 27.11 -63.8909L28.541 -61.8434C28.429 -61.7516 28.3183 -61.6573 28.2089 -61.5607ZM26.487 -64.7822C26.1638 -64.5851 25.8488 -64.3713 25.5431 -64.1412L24.2037 -66.1577C24.5301 -66.3288 24.8645 -66.4815 25.2058 -66.6154L26.487 -64.7822ZM24.5718 -67.5224C24.2427 -67.3846 23.9196 -67.2308 23.6036 -67.0613L22.4379 -68.8162C22.7821 -68.9218 23.132 -69.0084 23.4863 -69.0755L24.5718 -67.5224ZM22.8153 -70.0356C22.4784 -69.9562 22.1457 -69.8607 21.818 -69.7494L20.8932 -71.1418C21.2654 -71.1749 21.6411 -71.1863 22.0185 -71.1756L22.8153 -70.0356ZM21.1551 -72.2437C20.8421 -72.2268 20.5309 -72.196 20.2224 -72.1517L19.6608 -72.9971C19.9699 -72.9473 20.2765 -72.8822 20.5793 -72.8018C20.7782 -72.6256 20.9704 -72.4396 21.1551 -72.2437ZM-240.763 113.664C-241.726 114.812 -242.402 116.184 -242.719 117.67C-243.269 120.251 -242.692 122.945 -241.131 125.073L-241.078 125.146C-240.793 124.874 -240.493 124.618 -240.177 124.378L-235.672 120.948L-240.763 113.664ZM-235.051 121.836L-239.519 125.238C-239.841 125.482 -240.146 125.746 -240.432 126.027L-235.176 133.201L-229.985 129.085L-235.051 121.836ZM-229.365 129.972L-234.537 134.073L-229.415 141.065L-224.463 136.985L-229.365 129.972ZM-223.843 137.872L-228.777 141.936L-223.821 148.701L-219.095 144.666L-223.843 137.872ZM-218.473 145.556L-223.181 149.575L-218.377 156.132L-213.865 152.148L-218.473 145.556ZM-213.241 153.04L-217.735 157.008L-213.074 163.37L-208.766 159.444L-213.241 153.04ZM-208.138 160.341L-212.429 164.251L-207.898 170.436L-203.783 166.573L-208.138 160.341ZM-203.157 167.469L-207.254 171.315L-202.844 177.335L-198.914 173.54L-203.157 167.469ZM-198.287 174.436L-202.199 178.215L-197.901 184.082L-194.148 180.359L-198.287 174.436ZM-193.52 181.257L-197.256 184.963L-193.064 190.684L-189.48 187.037L-193.52 181.257ZM-188.848 187.94L-192.415 191.57L-56.9427 376.491C-53.9181 380.615 -48.0949 381.522 -43.9632 378.513L207.866 195.042C209.711 193.698 210.99 191.728 211.466 189.497L211.461 189.501C212.01 186.925 211.433 184.227 209.877 182.099L42.0385 -47.0006L40.9799 -45.9234L196.041 175.935C197.632 178.208 198.21 181.066 197.634 183.778C197.102 186.28 195.647 188.463 193.545 189.922L-54.6376 362.403C-59.192 365.568 -65.486 364.443 -68.662 359.896L-188.848 187.94ZM40.3472 -46.8287L41.3884 -47.8881L39.739 -50.1394L38.7317 -49.1402L40.3472 -46.8287ZM38.104 -50.0383L39.0938 -51.0202L37.4638 -53.2451L36.5079 -52.3219L38.104 -50.0383ZM35.8812 -53.2186L36.8194 -54.1247L35.2112 -56.32L34.3069 -55.471L35.8812 -53.2186ZM33.6783 -56.3705L34.5646 -57.2026L33.0089 -59.3261C32.7199 -59.1098 32.4397 -58.8784 32.1693 -58.6324L32.1253 -58.5924L33.6783 -56.3705ZM31.5013 -59.4852C31.7817 -59.7372 32.0716 -59.9749 32.3701 -60.198L30.9356 -62.1561C30.6245 -61.9876 30.3197 -61.8027 30.0224 -61.6012L31.5013 -59.4852ZM29.4027 -62.4878C29.6926 -62.6848 29.9892 -62.8674 30.2912 -63.0357L29.0079 -64.7875C28.688 -64.6743 28.3736 -64.5454 28.0656 -64.4009L29.4027 -62.4878ZM27.436 -65.3017C27.7327 -65.4465 28.0349 -65.5781 28.342 -65.6964L27.2562 -67.1785C26.9244 -67.1241 26.5962 -67.0533 26.2725 -66.9665L27.436 -65.3017ZM25.6195 -67.9007C25.926 -67.9944 26.2365 -68.0749 26.5504 -68.1419L25.747 -69.2386C25.3935 -69.2535 25.0415 -69.2497 24.6922 -69.2274L25.6195 -67.9007ZM23.9816 -70.2442C24.2671 -70.2794 24.5547 -70.3034 24.8439 -70.3159C24.6636 -70.5008 24.4768 -70.6768 24.2841 -70.8439C24.004 -70.9193 23.7192 -70.9824 23.4304 -71.0329L23.9816 -70.2442ZM-243.076 130.838C-242.762 129.366 -242.106 128.001 -241.174 126.845L-236.025 133.874L-240.594 137.497C-240.926 137.76 -241.241 138.042 -241.539 138.34C-243.073 136.164 -243.631 133.451 -243.076 130.838ZM-239.924 138.344L-235.386 134.746L-230.252 141.754L-235.578 146.141L-240.881 139.212C-240.583 138.903 -240.263 138.613 -239.924 138.344ZM-234.922 146.998L-229.613 142.625L-224.646 149.405L-229.747 153.76L-234.922 146.998ZM-229.09 154.619L-224.006 150.279L-219.191 156.851L-224.079 161.166L-229.09 154.619ZM-223.42 162.027L-218.55 157.727L-213.879 164.103L-218.564 168.372L-223.42 162.027ZM-217.901 169.238L-213.233 164.984L-208.692 171.182L-213.185 175.4L-217.901 169.238ZM-212.524 176.263L-208.048 172.061L-203.629 178.094L-207.938 182.255L-212.524 176.263ZM-207.277 183.119L-202.984 178.973L-198.677 184.852L-202.812 188.954L-207.277 183.119ZM-202.15 189.818L-198.032 185.733L-193.832 191.466L-197.799 195.503L-202.15 189.818ZM-197.134 196.372L-193.183 192.351L-57.8097 377.133C-54.4362 381.742 -47.9344 382.752 -43.3225 379.389L208.506 195.918C210.567 194.418 211.995 192.216 212.525 189.728C213.139 186.849 212.49 183.839 210.752 181.463L42.805 -47.7805L43.7119 -48.7033L224.603 187.649C226.303 189.874 226.942 192.717 226.361 195.453C225.885 197.684 224.623 199.671 222.805 201.053L-32.67 395.514C-36.867 398.71 -42.8996 397.899 -46.1059 393.706L-197.134 196.372ZM43.0453 -49.5742L42.1548 -48.668L40.5138 -50.908L41.3725 -51.7599L43.0453 -49.5742ZM40.7109 -52.6244L39.8685 -51.7887L38.2472 -54.0017L38.6502 -54.3909C38.7865 -54.5224 38.9251 -54.6499 39.0661 -54.7735L40.7109 -52.6244ZM37.9012 -55.1695L37.6028 -54.8813L36.0202 -57.0415C36.2902 -57.2621 36.5687 -57.4693 36.8548 -57.6628L38.4079 -55.6335C38.2359 -55.4842 38.067 -55.3295 37.9012 -55.1695ZM36.1945 -58.5254C35.9155 -58.3349 35.6431 -58.1323 35.378 -57.9181L33.9036 -59.9306C34.1826 -60.1001 34.4682 -60.2568 34.7596 -60.4003L36.1945 -58.5254ZM34.0911 -61.2738C33.8095 -61.129 33.5332 -60.9729 33.2626 -60.8056L31.9269 -62.6288C32.2168 -62.7493 32.5108 -62.8565 32.8078 -62.9505L34.0911 -61.2738ZM32.1139 -63.8572C31.8299 -63.7572 31.5488 -63.646 31.2713 -63.5236L30.1092 -65.1099C30.4109 -65.1803 30.7162 -65.2374 31.0244 -65.2808L32.1139 -63.8572ZM30.2803 -66.253C29.9905 -66.1968 29.7034 -66.1295 29.4195 -66.0513L28.5012 -67.3048C28.8258 -67.3178 29.1527 -67.3154 29.4809 -67.2975L30.2803 -66.253ZM28.5425 -68.3839C28.2768 -68.3754 28.0124 -68.3577 27.7496 -68.3308L27.2079 -69.0701C27.4751 -69.0195 27.7389 -68.9583 27.9988 -68.8868C28.1859 -68.7268 28.3673 -68.559 28.5425 -68.3839ZM-241.602 140.046C-242.496 141.205 -243.129 142.557 -243.437 144C-243.996 146.624 -243.47 149.324 -241.997 151.53C-241.689 151.209 -241.359 150.904 -241.01 150.615L-236.412 146.828L-241.602 140.046ZM-235.756 147.685L-240.323 151.446C-240.687 151.747 -241.027 152.069 -241.342 152.409L-236.006 159.102L-230.569 154.461L-235.756 147.685ZM-229.912 155.32L-235.333 159.948L-230.114 166.494L-224.89 161.882L-229.912 155.32ZM-224.231 162.743L-229.439 167.34L-224.387 173.678L-219.365 169.102L-224.231 162.743ZM-218.702 169.967L-223.709 174.529L-218.807 180.678L-213.976 176.142L-218.702 169.967ZM-213.315 177.006L-218.131 181.527L-213.369 187.5L-208.72 183.01L-213.315 177.006ZM-208.059 183.874L-212.693 188.349L-208.06 194.16L-203.584 189.72L-208.059 183.874ZM-202.923 190.584L-207.383 195.009L-202.874 200.666L-198.564 196.28L-202.923 190.584ZM-197.898 197.149L-202.194 201.52L-35.274 410.92C-33.6285 412.98 -31.2804 414.284 -28.6527 414.585C-26.0297 414.886 -23.4452 414.15 -21.3761 412.511L237.743 207.064C239.534 205.644 240.785 203.635 241.257 201.408L241.262 201.404C241.88 198.506 241.174 195.516 239.329 193.199L45.25 -50.2671C45.212 -50.2294 45.1743 -50.1915 45.1368 -50.1532L44.476 -49.4808L225.462 186.996C227.357 189.471 228.069 192.631 227.421 195.679C226.893 198.158 225.486 200.372 223.463 201.913L-32.0112 396.37C-36.6845 399.926 -43.3934 399.025 -46.9651 394.359L-197.898 197.149ZM43.8094 -50.3517L44.3603 -50.9122C44.4294 -50.9826 44.4991 -51.0522 44.5694 -51.1208L42.9213 -53.1883C42.6558 -52.9782 42.3979 -52.7561 42.1483 -52.5222L43.8094 -50.3517ZM41.489 -53.3836C41.735 -53.6104 41.9883 -53.8268 42.2483 -54.0326L40.7003 -55.9747C40.4312 -55.8107 40.1673 -55.635 39.9093 -55.4476L41.489 -53.3836ZM39.252 -56.3064C39.5034 -56.4901 39.76 -56.6635 40.0211 -56.8266L38.5866 -58.6261C38.3135 -58.5041 38.0451 -58.3711 37.7818 -58.2275L39.252 -56.3064ZM37.1158 -59.0977C37.3698 -59.2406 37.6284 -59.3743 37.8911 -59.4986L36.6053 -61.1116C36.3271 -61.0322 36.0523 -60.942 35.7815 -60.8411L37.1158 -59.0977ZM35.0976 -61.7347C35.3555 -61.8387 35.6169 -61.9338 35.8813 -62.0198L34.7975 -63.3794C34.5115 -63.3454 34.2264 -63.3 33.9431 -63.2431L35.0976 -61.7347ZM33.2204 -64.1873C33.4853 -64.2525 33.7519 -64.3084 34.0197 -64.3552L33.2198 -65.3587C32.9139 -65.3794 32.6092 -65.387 32.3063 -65.3817L33.2204 -64.1873ZM31.509 -66.4235C31.7506 -66.4439 31.9935 -66.4569 32.2375 -66.4622C32.0714 -66.6236 31.9003 -66.7785 31.7245 -66.9269C31.4819 -66.9951 31.2361 -67.0546 30.9874 -67.1051L31.509 -66.4235ZM-243.798 157.162C-243.492 155.724 -242.895 154.404 -242.042 153.253L-236.823 159.8L-241.431 163.733C-241.793 164.044 -242.133 164.372 -242.451 164.717C-243.868 162.484 -244.361 159.795 -243.798 157.162ZM-240.727 164.553L-236.15 160.645L-230.92 167.206L-236.453 172.09L-241.686 165.769C-241.728 165.719 -241.769 165.669 -241.809 165.618C-241.477 165.241 -241.116 164.885 -240.727 164.553ZM-235.763 172.923L-230.245 168.052L-225.183 174.403L-230.514 179.261L-235.763 172.923ZM-229.821 180.099L-224.504 175.254L-219.593 181.416L-224.734 186.242L-229.821 180.099ZM-224.043 187.077L-218.917 182.265L-214.145 188.25L-219.105 193.04L-224.043 187.077ZM-218.414 193.875L-213.469 189.099L-208.828 194.921L-213.615 199.671L-218.414 193.875ZM-212.924 200.506L-208.151 195.771L-203.633 201.439L-208.256 206.143L-212.924 200.506ZM-207.561 206.982L-202.953 202.292L-36.1214 411.589C-34.2967 413.878 -31.687 415.322 -28.7748 415.657C-25.8572 415.988 -22.9928 415.169 -20.7008 413.355L238.419 207.908C240.405 206.332 241.79 204.104 242.317 201.63C243.002 198.414 242.221 195.097 240.172 192.529L46.0521 -50.9983C46.2884 -51.1956 46.531 -51.3835 46.7794 -51.5616L254.05 198.753C256.043 201.162 256.816 204.299 256.162 207.361L256.156 207.365C255.68 209.625 254.472 211.602 252.682 213.076L-10.083 429.513C-12.186 431.238 -14.8316 432.05 -17.5433 431.788C-20.2549 431.526 -22.7057 430.229 -24.442 428.134L-207.561 206.982ZM46.0855 -52.3995C45.8435 -52.224 45.6066 -52.0399 45.3753 -51.8474L43.8008 -53.8226C44.0416 -53.9803 44.2875 -54.129 44.5379 -54.2685L46.0855 -52.3995ZM43.8388 -55.1129C43.5967 -54.9732 43.3587 -54.8256 43.1252 -54.6701L41.665 -56.5019C41.9113 -56.6218 42.1609 -56.7327 42.4133 -56.8344L43.8388 -55.1129ZM41.6922 -57.7053C41.4506 -57.6003 41.2116 -57.4875 40.9755 -57.3669L39.6446 -59.0365C39.8953 -59.1196 40.149 -59.1939 40.4053 -59.2593L41.6922 -57.7053ZM39.6491 -60.1726C39.4068 -60.1002 39.1668 -60.0206 38.9296 -59.9336L37.7783 -61.3779C38.0381 -61.4222 38.3001 -61.4574 38.5639 -61.4832L39.6491 -60.1726ZM37.7496 -62.4666C37.5045 -62.4283 37.2612 -62.3825 37.0199 -62.3294L36.122 -63.4558C36.4014 -63.4549 36.6808 -63.4433 36.9593 -63.421L37.7496 -62.4666ZM35.9411 -64.5326C35.722 -64.5301 35.5029 -64.5215 35.2841 -64.507L34.7818 -65.1371C35.0072 -65.0879 35.2302 -65.0316 35.4507 -64.9681C35.6183 -64.8287 35.7818 -64.6835 35.9411 -64.5326ZM-242.494 166.484C-243.301 167.625 -243.869 168.919 -244.167 170.317C-244.73 172.96 -244.268 175.645 -242.902 177.902C-242.575 177.534 -242.223 177.183 -241.847 176.852L-237.262 172.804L-242.494 166.484ZM-236.572 173.637L-241.133 177.664C-241.544 178.027 -241.924 178.417 -242.271 178.83C-242.142 178.999 -242.007 179.166 -241.867 179.329L-236.918 185.096L-231.312 179.989L-236.572 173.637ZM-230.619 180.826L-236.21 185.921L-230.937 192.066L-225.522 186.982L-230.619 180.826ZM-224.831 187.817L-230.232 192.888L-225.118 198.847L-219.883 193.792L-224.831 187.817ZM-219.192 194.626L-224.414 199.669L-219.447 205.456L-214.384 200.433L-219.192 194.626ZM-213.693 201.268L-218.742 206.278L-213.916 211.902L-209.016 206.916L-213.693 201.268ZM-208.321 207.755L-213.208 212.727L-13.5997 445.345C-9.82779 449.74 -3.18498 450.257 1.21738 446.501L267.628 219.078C269.394 217.572 270.585 215.577 271.068 213.309L271.067 213.313C271.754 210.088 270.919 206.805 268.772 204.303L48.3808 -52.5345C48.1442 -52.4144 47.9113 -52.2866 47.6825 -52.1511L254.872 198.065C257.082 200.733 257.93 204.201 257.212 207.586C256.675 210.087 255.351 212.272 253.369 213.907L-9.39987 430.338C-11.7187 432.254 -14.6537 433.149 -17.6514 432.862C-20.6483 432.571 -23.3614 431.139 -25.2777 428.82L-208.321 207.755ZM46.9823 -52.9966C47.2031 -53.1311 47.4274 -53.2591 47.6551 -53.3802L46.2273 -55.0441C45.9895 -54.9566 45.7545 -54.8616 45.5228 -54.7592L46.9823 -52.9966ZM44.8101 -55.62C45.0313 -55.7239 45.2553 -55.8215 45.482 -55.9127L44.2092 -57.396C43.9691 -57.3415 43.7305 -57.2795 43.4936 -57.2098L44.8101 -55.62ZM42.7483 -58.1099C42.9712 -58.1841 43.1957 -58.2521 43.4216 -58.3139L42.3359 -59.579C42.0889 -59.5595 41.8434 -59.5322 41.5997 -59.497L42.7483 -58.1099ZM40.8041 -60.4578C41.0291 -60.5021 41.2557 -60.5402 41.4837 -60.5721L40.6956 -61.4906C40.5271 -61.5057 40.3578 -61.517 40.1878 -61.5245C40.0961 -61.5288 40.0045 -61.5319 39.913 -61.5339L40.8041 -60.4578ZM39.0314 -62.5986C39.2319 -62.6087 39.4332 -62.6138 39.6352 -62.6141C39.487 -62.7506 39.3353 -62.8824 39.1804 -63.0095C38.9734 -63.0706 38.7648 -63.1254 38.555 -63.174L39.0314 -62.5986ZM-244.538 183.483C-244.248 182.123 -243.709 180.856 -242.948 179.727C-242.864 179.832 -242.779 179.935 -242.692 180.036L-237.722 185.828L-242.263 189.966C-242.651 190.321 -243.014 190.698 -243.35 191.094C-244.65 188.81 -245.093 186.092 -244.538 183.483ZM-241.533 190.771L-237.014 186.653L-231.73 192.811L-237.407 198.14L-242.055 192.902C-242.297 192.629 -242.524 192.345 -242.735 192.052C-242.371 191.598 -241.97 191.169 -241.533 190.771ZM-236.689 198.95L-231.025 193.632L-225.901 199.603L-231.398 204.912L-236.689 198.95ZM-230.68 205.721L-225.196 200.425L-220.22 206.223L-225.546 211.506L-230.68 205.721ZM-224.829 212.315L-219.516 207.045L-214.68 212.68L-219.843 217.934L-224.829 212.315ZM-219.122 218.746L-213.972 213.505L-14.4237 446.047C-10.2629 450.89 -2.93349 451.464 1.92089 447.32L268.331 219.897C270.284 218.234 271.596 216.037 272.127 213.535C272.885 209.978 271.961 206.357 269.592 203.594L49.4068 -52.9973C49.6185 -53.0813 49.8326 -53.1595 50.0489 -53.2317L283.49 209.846C285.758 212.403 286.684 215.924 285.972 219.266C285.49 221.534 284.31 223.55 282.567 225.089L12.5058 463.502C10.3477 465.411 7.56232 466.364 4.67658 466.189C1.79553 466.014 -0.850416 464.728 -2.76852 462.563L-219.122 218.746ZM49.2719 -54.1073C49.067 -54.0311 48.8641 -53.9499 48.6633 -53.8638L47.3491 -55.3952C47.5632 -55.4508 47.7791 -55.5006 47.9966 -55.5445L49.2719 -54.1073ZM47.1801 -56.4646C46.9769 -56.4136 46.7752 -56.3578 46.5751 -56.2973L45.4494 -57.6091C45.6698 -57.635 45.8907 -57.6548 46.112 -57.6684L47.1801 -56.4646ZM45.2224 -58.6709C45.0197 -58.6455 44.8175 -58.6153 44.616 -58.5803L43.7365 -59.6052C43.9717 -59.5955 44.2055 -59.5788 44.4378 -59.5552L45.2224 -58.6709ZM43.3331 -60.6939C43.1576 -60.6951 42.9826 -60.6928 42.8083 -60.6869L42.354 -61.2163C42.5335 -61.1725 42.7117 -61.1242 42.8882 -61.0717C43.0392 -60.9503 43.1876 -60.8244 43.3331 -60.6939ZM-243.396 192.97C-244.115 194.086 -244.627 195.326 -244.909 196.648C-245.468 199.264 -245.051 201.975 -243.796 204.283C-243.451 203.863 -243.077 203.463 -242.674 203.086L-238.193 198.879L-242.862 193.617C-243.048 193.407 -243.226 193.191 -243.396 192.97ZM-237.475 199.688L-241.937 203.877C-242.397 204.309 -242.817 204.773 -243.194 205.266C-242.905 205.688 -242.584 206.093 -242.234 206.476L-237.908 211.2L-232.174 205.662L-237.475 199.688ZM-231.456 206.47L-237.178 211.997L-231.876 217.786L-226.313 212.267L-231.456 206.47ZM-225.595 213.076L-231.146 218.583L-226.002 224.2L-220.6 218.704L-225.595 213.076ZM-219.88 219.516L-225.269 225L8.07207 479.784C10.0826 481.973 12.8258 483.256 15.7954 483.393C18.7698 483.53 21.6165 482.5 23.8138 480.501L297.515 231.102C299.239 229.531 300.407 227.498 300.891 225.225L300.887 225.22C301.637 221.71 300.634 218.037 298.212 215.391L51.7941 -53.6755C51.5958 -53.6402 51.3988 -53.6001 51.2032 -53.5554L284.301 209.132C286.798 211.94 287.814 215.814 287.033 219.488C286.502 221.985 285.206 224.199 283.287 225.892L13.2274 464.3C10.848 466.404 7.78577 467.451 4.6132 467.256C1.43587 467.06 -1.47402 465.648 -3.57843 463.269L-219.88 219.516ZM50.3929 -54.4685C50.5745 -54.5184 50.7574 -54.5644 50.9414 -54.6066L49.8734 -55.7728C49.672 -55.764 49.4715 -55.7503 49.272 -55.7317L50.3929 -54.4685ZM48.4034 -56.7105C48.5845 -56.7381 48.7664 -56.7619 48.9492 -56.782L48.1865 -57.6147C47.9756 -57.6387 47.7642 -57.657 47.5524 -57.6696L48.4034 -56.7105ZM46.5767 -58.7692C46.7309 -58.7724 46.8852 -58.7727 47.0394 -58.7704C46.9051 -58.8886 46.7682 -59.0034 46.6291 -59.1145C46.4708 -59.1629 46.3113 -59.2078 46.1507 -59.2492L46.5767 -58.7692ZM-245.288 209.807C-245.015 208.523 -244.527 207.312 -243.848 206.212C-243.596 206.553 -243.326 206.882 -243.037 207.197L-238.685 211.949L-243.091 216.205C-243.506 216.605 -243.891 217.029 -244.245 217.475C-245.459 215.145 -245.848 212.437 -245.288 209.807ZM-242.342 216.983L-237.955 212.746L-232.643 218.546L-238.421 224.279L-242.42 220.04C-242.88 219.553 -243.292 219.031 -243.654 218.481C-243.263 217.95 -242.824 217.449 -242.342 216.983ZM-237.68 225.064L-231.913 219.343L-226.759 224.971L-232.375 230.686L-237.68 225.064ZM-231.631 231.474L-226.026 225.771L7.26842 480.509C9.46995 482.915 12.4779 484.319 15.7406 484.467C19.0026 484.618 22.1269 483.49 24.5362 481.294L298.237 231.896C300.128 230.169 301.412 227.938 301.942 225.445C302.762 221.6 301.665 217.572 299.006 214.669L53.1004 -53.8379C53.2793 -53.8507 53.4589 -53.8597 53.6393 -53.8649L312.939 220.941C315.515 223.676 316.588 227.501 315.806 231.175L315.801 231.179C315.312 233.456 314.155 235.505 312.45 237.108L35.1031 497.497C30.5048 501.815 23.2376 501.589 18.904 496.998L-231.631 231.474ZM52.6747 -54.8872C52.5125 -54.8716 52.351 -54.8531 52.1901 -54.8319L51.3495 -55.7497C51.5384 -55.7354 51.7264 -55.7169 51.9134 -55.694L52.6747 -54.8872ZM50.4657 -56.8623C50.4207 -56.8625 50.3757 -56.8624 50.3308 -56.8621L49.9496 -57.2783C50.0871 -57.2411 50.2241 -57.2013 50.3604 -57.1591C50.4837 -57.0617 50.6053 -56.9617 50.725 -56.859C50.6387 -56.8609 50.5523 -56.862 50.4657 -56.8623ZM-244.295 219.448C-244.938 220.532 -245.402 221.717 -245.668 222.965C-246.232 225.608 -245.866 228.316 -244.69 230.666C-244.329 230.195 -243.934 229.747 -243.507 229.324L-239.184 225.036L-243.206 220.773C-243.602 220.354 -243.965 219.911 -244.295 219.448ZM-238.443 225.821L-242.746 230.09C-243.249 230.589 -243.704 231.127 -244.108 231.697C-243.678 232.376 -243.175 233.015 -242.602 233.604L-238.946 237.372L-233.129 231.453L-238.443 225.821ZM-232.385 232.242L-238.191 238.149L29.736 514.212C31.9283 516.471 34.8674 517.738 38.0151 517.794C41.1628 517.849 44.1406 516.672 46.4025 514.49L327.394 243.115C329.08 241.484 330.23 239.42 330.72 237.133C331.54 233.292 330.397 229.31 327.66 226.49L55.6567 -53.7629C55.4927 -53.7845 55.3279 -53.8028 55.1625 -53.8179L313.72 220.207C316.543 223.2 317.715 227.386 316.856 231.404C316.321 233.896 315.059 236.14 313.188 237.895L35.8411 498.283C30.8073 503.007 22.8511 502.767 18.1121 497.74L-232.385 232.242ZM54.0943 -54.95L53.7384 -55.3271C53.8504 -55.2955 53.9618 -55.2622 54.0726 -55.2274C54.1913 -55.1354 54.3085 -55.0409 54.4242 -54.9438C54.3145 -54.9472 54.2045 -54.9492 54.0943 -54.95ZM-246.046 236.12C-245.787 234.911 -245.346 233.758 -244.742 232.695C-244.339 233.279 -243.884 233.834 -243.381 234.353L-239.703 238.143L-243.928 242.442C-244.364 242.886 -244.767 243.358 -245.135 243.853C-246.272 241.483 -246.614 238.776 -246.046 236.12ZM-243.151 243.196L-238.948 238.92L28.9723 514.959C31.3627 517.42 34.5712 518.81 38.0089 518.866C41.4459 518.926 44.6973 517.645 47.1672 515.261L328.159 243.887C330 242.108 331.255 239.848 331.785 237.356C332.679 233.16 331.432 228.817 328.44 225.737L57.5594 -53.3592C57.6394 -53.3355 57.719 -53.3111 57.7984 -53.2858C58.2239 -52.9587 58.6305 -52.6014 59.0153 -52.2151L342.378 232.034C345.278 234.944 346.498 239.075 345.64 243.088L345.639 243.093C345.153 245.38 344.01 247.465 342.339 249.123L57.7012 531.487C52.9723 536.18 45.2902 536.15 40.5774 531.428L-242.784 247.169C-243.472 246.479 -244.066 245.721 -244.56 244.911C-244.145 244.302 -243.674 243.728 -243.151 243.196ZM-245.188 245.937C-244.714 246.646 -244.167 247.316 -243.551 247.934L39.8153 532.194C44.9452 537.34 53.3186 537.369 58.4714 532.255L343.109 249.891C344.931 248.084 346.169 245.807 346.704 243.315C347.632 238.946 346.305 234.445 343.148 231.279L61.0986 -51.6584C61.6699 -51.261 62.2118 -50.8129 62.7186 -50.3163L357.094 237.588C360.155 240.577 361.45 244.866 360.559 249.048L360.563 249.049C360.077 251.341 358.944 253.447 357.288 255.131L69.0054 548.481C66.6789 550.846 63.5709 552.165 60.249 552.197C56.9225 552.227 53.789 550.966 51.4141 548.643L-242.967 260.743C-246.022 257.749 -247.318 253.465 -246.426 249.279C-246.176 248.104 -245.759 246.98 -245.188 245.937Z" fill="url(#paint0_linear_985_117811)"/>
<defs>
<linearGradient id="paint0_linear_985_117811" x1="-22.6771" y1="-93.1039" x2="-11.6893" y2="541.399" gradientUnits="userSpaceOnUse">
<stop stop-color="#81C7FF" stop-opacity="0.5"/>
<stop offset="1" stop-color="#0A3C64" stop-opacity="0.5"/>
</linearGradient>
</defs>
</svg>
