<svg width="527" height="220" viewBox="0 0 527 220" fill="none" xmlns="http://www.w3.org/2000/svg">
<path fill-rule="evenodd" clip-rule="evenodd" d="M653.546 122.287C655.839 123.794 657.129 126.428 656.903 129.162C656.799 130.399 656.381 131.605 655.696 132.647L652.453 137.571C653.153 138.868 653.482 140.361 653.359 141.867C653.241 143.25 652.75 144.577 651.933 145.713L648.832 150.018C649.6 151.377 649.957 152.955 649.825 154.567L649.825 154.562C649.698 156.099 649.128 157.555 648.176 158.775L645.242 162.526C646.06 163.945 646.444 165.598 646.305 167.27L646.309 167.27C646.167 168.958 645.515 170.538 644.417 171.841L641.698 175.065C642.549 176.527 642.94 178.226 642.795 179.969C642.642 181.819 641.902 183.522 640.655 184.902L638.174 187.645C639.041 189.15 639.441 190.894 639.294 192.673C639.129 194.652 638.281 196.529 636.897 197.963L634.682 200.258C635.553 201.797 635.954 203.577 635.803 205.375C635.628 207.51 634.682 209.514 633.14 211.02L631.211 212.901C632.07 214.467 632.465 216.27 632.316 218.081C632.125 220.383 631.082 222.509 629.379 224.076L627.763 225.563C628.611 227.149 628.986 228.945 628.835 230.784L628.836 230.779C628.633 233.248 627.491 235.506 625.622 237.133L624.332 238.257C625.152 239.856 625.513 241.654 625.363 243.488C625.144 246.122 623.9 248.502 621.864 250.19L620.917 250.974C621.702 252.582 622.044 254.375 621.896 256.192C621.665 258.955 620.286 261.529 618.108 263.247L617.514 263.715C618.26 265.323 618.583 267.105 618.433 268.897C618.191 271.831 616.7 274.53 614.351 276.299L614.118 276.475C614.821 278.08 615.122 279.844 614.975 281.607L614.97 281.606C614.721 284.652 613.175 287.431 610.729 289.256C611.384 290.848 611.661 292.583 611.517 294.312C611.264 297.375 609.754 300.155 607.346 302.03C607.964 303.605 608.213 305.295 608.069 307.019C607.811 310.102 606.334 312.889 603.96 314.814C604.534 316.373 604.762 318.036 604.621 319.726L604.626 319.722C604.367 322.83 602.914 325.625 600.576 327.595C601.113 329.137 601.32 330.775 601.182 332.434L601.177 332.433C600.925 335.511 599.467 338.36 597.181 340.374C597.68 341.901 597.871 343.514 597.738 345.141L597.743 345.142C597.483 348.237 596.05 351.099 593.792 353.157C594.259 354.666 594.433 356.253 594.299 357.849C594.043 360.969 592.632 363.837 590.4 365.934C590.837 367.426 590.996 368.989 590.865 370.558L590.87 370.558C590.609 373.7 589.216 376.583 587.008 378.72C587.414 380.193 587.559 381.728 587.431 383.266C587.17 386.429 585.799 389.326 583.618 391.499C583.996 392.955 584.129 394.468 584.006 395.98L584.007 395.976C583.62 400.613 580.929 404.664 576.806 406.817L211.865 597.519C208.668 599.189 205.007 599.522 201.559 598.446C198.109 597.374 195.288 595.026 193.612 591.834L2.2519 227.77C1.05983 225.499 0.54187 222.954 0.749502 220.409C1.13063 215.776 3.82241 211.72 7.9453 209.567L372.886 18.8654C374.727 17.9034 376.722 17.3864 378.741 17.3257C380.075 16.8403 381.467 16.577 382.871 16.5398C384.219 16.0452 385.614 15.7903 387 15.7595C388.332 15.2597 389.729 14.9934 391.14 14.9668C392.464 14.4636 393.855 14.197 395.263 14.1753C396.596 13.6623 397.987 13.4045 399.37 13.3866C400.7 12.8604 402.111 12.5878 403.54 12.5807C404.842 12.062 406.225 11.7936 407.629 11.7878C408.946 11.2501 410.351 10.9763 411.779 10.9804C413.08 10.4431 414.473 10.1711 415.892 10.1797C417.215 9.62277 418.619 9.35737 420.014 9.37101C421.332 8.80463 422.737 8.53668 424.133 8.55593C425.426 7.98647 426.83 7.70413 428.268 7.73366C429.572 7.15201 430.975 6.88101 432.369 6.91315C433.648 6.32219 435.056 6.03149 436.504 6.0752C437.712 5.50902 439.041 5.21882 440.414 5.23566C440.487 5.23655 440.559 5.23829 440.632 5.24088C441.921 4.62642 443.333 4.34562 444.736 4.40101C446.022 3.77092 447.441 3.48392 448.851 3.54742C450.13 2.90458 451.552 2.61254 452.966 2.68453C454.235 2.03143 455.658 1.73483 457.072 1.8145C458.332 1.14942 459.756 0.846452 461.172 0.932872C463.526 -0.344175 466.494 -0.321854 468.886 1.24558L653.546 122.287ZM463.137 1.31251C464.837 0.867591 466.713 1.11506 468.296 2.15104L652.946 123.191C654.911 124.479 656.014 126.733 655.818 129.073C655.732 130.129 655.376 131.16 654.787 132.051L651.81 136.571C651.352 135.967 650.802 135.426 650.172 134.974L465.193 2.36288C464.548 1.90016 463.854 1.55133 463.137 1.31251ZM651.178 137.53C650.744 136.89 650.193 136.321 649.537 135.85L464.568 3.23516C463.609 2.54899 462.527 2.15444 461.429 2.03427C461.078 2.24686 460.746 2.49462 460.437 2.77638C460.804 2.9776 461.16 3.21048 461.5 3.47545L645.281 146.483L651.178 137.53ZM651.769 138.61C652.188 139.586 652.37 140.666 652.279 141.778C652.181 142.967 651.757 144.11 651.056 145.088L648.194 149.06C647.793 148.544 647.325 148.073 646.794 147.661L646.141 147.153L651.769 138.61ZM645.546 148.056L646.129 148.509C646.675 148.933 647.146 149.43 647.532 149.979L641.325 158.594L639.573 157.123L645.546 148.056ZM638.977 158.027L640.695 159.468L634.509 168.054L633.167 166.847L638.977 158.027ZM632.351 166.113L638.14 157.324L457.983 6.14703L456.726 8.0545L632.351 166.113ZM632.567 167.759L633.874 168.935L627.87 177.269L626.91 176.346L632.567 167.759ZM626.114 175.582L631.751 167.024L456.124 8.9683L454.781 11.0079L626.114 175.582ZM626.305 177.264L627.232 178.154L621.391 186.26L620.786 185.642L626.305 177.264ZM620.01 184.849L625.51 176.5L454.176 11.9254L452.751 14.0901L620.01 184.849ZM620.179 186.564L620.751 187.148L615.064 195.042L614.789 194.746L620.179 186.564ZM614.031 193.926L619.403 185.771L452.143 15.012L450.645 17.2866L614.031 193.926ZM614.178 195.674L614.42 195.936L609.582 202.65L614.178 195.674ZM608.167 202.829L613.42 194.855L450.032 18.2175L448.466 20.5943L608.167 202.829ZM602.412 211.566L607.553 203.762L447.854 21.5246L446.221 24.0027L602.412 211.566ZM596.76 220.147L601.794 212.505L445.599 24.947L443.916 27.5018L596.76 220.147ZM594.464 223.633L596.133 221.099L443.288 28.4559L441.55 31.0945L591.04 228.385L594.464 223.633ZM577.188 249.861L578.511 247.852L576.392 250.562L575.192 252.228L577.188 249.861ZM578.018 250.565L575.663 254.14L576.044 254.709L581.504 248.673L580.65 247.445L578.018 250.565ZM585.765 238.806L583.098 242.854L586.11 239.283L585.765 238.806ZM586.719 237.357L586.401 237.84L586.829 238.43L592.342 231.894L591.678 231.017L586.719 237.357ZM595.397 224.184L594.044 226.237L597.105 222.323L596.912 222.08L595.397 224.184ZM575.019 255.118L573.265 257.78L575.297 255.534L575.019 255.118ZM569.768 261.126L572.111 257.569L569.484 260.684L569.768 261.126ZM568.507 263.04L569.118 262.113L568.755 261.548L566.847 263.81L563.909 267.888L563.996 268.028L568.507 263.04ZM569.348 263.727L569.82 263.205L570.851 264.809L565.461 270.392L565.217 269.998L569.348 263.727ZM564.561 270.993L564.686 271.194L563.878 272.031L564.561 270.993ZM559.811 276.242L563.935 269.982L563.835 269.821L558.716 275.48L559.417 276.651L559.811 276.242ZM560.648 276.935L560.092 277.779L561.19 279.614L566.623 274.32L565.274 272.143L560.648 276.935ZM559.429 278.785L555.023 285.473L555.079 285.569L560.391 280.393L559.429 278.785ZM554.42 284.428L556.582 281.146L554.042 283.776L554.42 284.428ZM551.141 289.405L553.754 285.439L553.26 284.586L548.196 289.831L549.081 291.413L551.141 289.405ZM551.971 290.107L550.013 293.078L550.957 294.766L556.303 289.848L554.837 287.313L551.971 290.107ZM549.344 294.095L545.737 299.57L550.14 295.518L549.344 294.095ZM544.474 299.528L548.366 293.619L543.723 298.142L544.474 299.528ZM542.461 302.584L543.8 300.551L542.92 298.925L538.315 303.412L537.969 303.893L538.969 305.796L542.461 302.584ZM543.288 303.287L544.62 302.062L546.181 304.944L540.928 309.523L540.152 308.047L543.288 303.287ZM539.58 306.958L540.013 306.301L539.488 306.783L539.58 306.958ZM539.471 309.081L540.089 310.255L536.823 313.101L539.471 309.081ZM533.795 315.74L538.899 307.992L538.663 307.543L528.802 316.616L527.105 318.97C528.256 319.158 529.433 319.028 530.507 318.607L533.795 315.74ZM534.605 316.468L534.412 316.762C533.571 318.04 532.403 318.976 531.089 319.533L519.291 329.817L519.055 330.144C518.264 331.242 517.235 332.07 516.088 332.609L503.956 343.183L503.689 343.525C502.965 344.453 502.073 345.175 501.089 345.683L488.642 356.532L488.334 356.898C487.687 357.665 486.927 358.283 486.099 358.749L473.285 369.918L472.963 370.274C472.411 370.885 471.789 371.396 471.12 371.806L458.028 383.218L457.613 383.647C457.152 384.123 456.65 384.535 456.116 384.883L442.652 396.619L442.243 397.018C441.904 397.348 441.546 397.645 441.171 397.91L428.928 408.582L542.381 314.616L540.605 311.238L534.605 316.468ZM528.789 320.104C528 320.172 527.197 320.117 526.413 319.932L522.068 325.962L528.789 320.104ZM524.446 319.159L518.382 324.738L523.311 318.435L524.028 318.904C524.165 318.994 524.305 319.079 524.446 319.159ZM522.138 317.665L518.13 321.57L521.678 317.364L522.138 317.665ZM522.4 316.547L522.929 316.894L523.829 316.018L527.739 311.018L522.4 316.547ZM520.227 316.413L508.402 329.485L507.734 330.176L323.944 198.414C322.032 197.043 321.01 194.832 321.202 192.487L321.207 192.487C321.305 191.298 321.729 190.156 322.429 189.182L411.479 65.5805L414.165 70.6908L337.218 187.507C336.533 188.55 336.115 189.756 336.012 190.988C335.785 193.722 337.07 196.36 339.373 197.864L520.227 316.413ZM414.744 71.7911L338.133 188.099C337.544 188.99 337.182 190.021 337.096 191.077L337.091 191.081C336.9 193.422 338.003 195.676 339.968 196.968L520.959 315.603L532.506 302.838L534.776 300.147L414.744 71.7911ZM414.847 69.6554L412.188 64.5964L414.318 61.64L416.94 66.4781L414.847 69.6554ZM417.528 67.5634L415.426 70.7557L535.53 299.253L540.137 293.791L417.528 67.5634ZM417.614 65.4553L415.019 60.6673L417.123 57.7472L419.68 62.3185L417.614 65.4553ZM420.278 63.3882L418.202 66.5406L540.884 292.905L545.57 287.349L420.278 63.3882ZM420.349 61.3023L417.82 56.78L419.894 53.9003L422.386 58.2105L420.349 61.3023ZM422.995 59.264L420.948 62.372L546.314 286.467L551.081 280.815L422.995 59.264ZM423.054 57.1967L420.59 52.9347L422.636 50.095L425.061 54.1495L423.054 57.1967ZM425.681 55.1861L423.663 58.2501L551.823 279.936L554.918 276.266L556.62 274.089L425.681 55.1861ZM425.721 53.1472L423.324 49.1397L425.339 46.3433L427.697 50.1482L425.721 53.1472ZM428.328 51.1673L426.341 54.1838L557.337 273.173L562.121 267.056L428.328 51.1673ZM428.352 49.1526L426.023 45.3937L427.999 42.6506L430.289 46.2122L428.352 49.1526ZM430.933 47.213L428.984 50.1717L562.831 266.148L567.705 259.916L430.933 47.213ZM430.943 45.2203L428.681 41.7036L430.624 39.008L432.845 42.3326L430.943 45.2203ZM433.501 43.3144L431.586 46.2211L568.41 259.014L573.378 252.662L433.501 43.3144ZM433.491 41.3523L431.298 38.0713L433.203 35.4271L435.355 38.5214L433.491 41.3523ZM436.024 39.4834L434.147 42.3341L574.078 251.767L575.543 249.894L579.008 245.084L436.024 39.4834ZM435.994 37.5525L433.871 34.5005L435.732 31.9174L437.814 34.7885L435.994 37.5525ZM438.497 35.7298L436.663 38.5144L579.677 244.156L584.645 237.262L438.497 35.7298ZM438.449 33.8249L436.397 30.9949L438.212 28.4756L440.224 31.1307L438.449 33.8249ZM440.92 32.0504L439.132 34.7661L585.311 236.337L590.379 229.303L440.92 32.0504ZM440.853 30.1749L438.872 27.5597L440.635 25.1121L442.576 27.5589L440.853 30.1749ZM443.205 26.6048L441.294 24.1969L443.001 21.8274L444.872 24.0737L443.205 26.6048ZM445.494 23.1294L443.655 20.9207L445.31 18.6225L447.11 20.6761L445.494 23.1294ZM447.723 19.7458L445.955 17.7283L447.542 15.5254L449.271 17.3951L447.723 19.7458ZM449.884 16.4642L448.187 14.6295L449.705 12.5227L451.365 14.217L449.884 16.4642ZM451.972 13.2951L450.345 11.6343L451.788 9.63142L453.379 11.1593L451.972 13.2951ZM453.983 10.2418L452.426 8.74606L453.784 6.8618L455.307 8.23251L453.983 10.2418ZM455.909 7.31871L454.42 5.97879L455.308 4.74656C455.388 4.63481 455.471 4.5263 455.558 4.42109C456.103 4.67702 456.625 5.00699 457.107 5.41221L457.144 5.44328L455.909 7.31871ZM457.743 4.53422C457.302 4.17207 456.835 3.86359 456.348 3.6081C456.652 3.3455 456.976 3.11392 457.316 2.91412C457.762 2.95897 458.205 3.04752 458.64 3.18065C458.591 3.24862 458.544 3.31761 458.498 3.38764L457.743 4.53422ZM459.683 3.59732C460.083 3.79687 460.469 4.03865 460.835 4.32341L644.686 147.386L638.735 156.42L458.582 5.23764L459.408 3.98366C459.495 3.85052 459.587 3.72172 459.683 3.59732ZM459.377 2.29309C459.28 2.25751 459.184 2.22388 459.086 2.1922C459.251 2.15144 459.416 2.11691 459.583 2.08869C459.513 2.15529 459.444 2.22343 459.377 2.29309ZM523.978 317.582L524.623 318.004C524.839 318.146 525.061 318.273 525.287 318.385L527.98 315.907L533.845 307.767L524.64 316.736L523.978 317.582ZM648.75 154.479C648.851 153.262 648.627 152.066 648.125 150.999L642.153 159.288L643.415 160.348C643.86 160.72 644.259 161.135 644.608 161.584L647.322 158.114C648.148 157.06 648.639 155.806 648.75 154.479ZM642.72 161.168L641.523 160.163L635.315 168.779L637.466 170.716L643.92 162.464C643.579 161.988 643.177 161.552 642.72 161.168ZM636.8 171.568L634.68 169.66L628.655 178.023L630.423 179.721L636.8 171.568ZM629.754 180.577L628.017 178.908L622.157 187.042L623.57 188.484L629.754 180.577ZM622.9 189.342L621.517 187.93L615.811 195.85L616.894 197.021L622.9 189.342ZM616.22 197.882L615.167 196.744L609.603 204.467L610.378 205.352L616.22 197.882ZM609.703 206.216L608.956 205.364L603.525 212.902L604.014 213.489L609.703 206.216ZM603.336 214.357L602.875 213.804L597.57 221.168L597.791 221.446L603.336 214.357ZM557.296 275.219L556.535 276.275L554.673 278.334L555.634 277.104L557.266 275.169L557.296 275.219ZM553.339 282.559L557.357 276.983L557.955 276.321L558.636 277.46L553.479 282.801L553.339 282.559ZM563.076 269.044L563.225 268.837L563.241 268.862L563.076 269.044ZM552.242 284.082L552.645 283.522L552.697 283.611L552.242 284.082ZM550.815 284.214L547.572 288.715L547.255 288.149L550.815 284.214ZM548.28 292.193L547.457 290.723L543.031 296.866L543.188 297.155L548.28 292.193ZM542.57 295.658L542.46 295.811L542.446 295.786L542.57 295.658ZM542.384 297.938L542.331 297.839L541.964 298.348L542.384 297.938ZM541.759 296.784L537.493 302.703L537.394 302.8L536.788 301.646L541.66 296.601L541.759 296.784ZM531.933 312.27L537.261 304.875L538.144 306.556L531.933 312.27ZM524.849 320.253L518.485 329.086L515.493 331.694C514.552 332.111 513.524 332.305 512.498 332.262L514.296 329.963L524.849 320.253ZM511.708 333.271C512.356 333.362 513.009 333.369 513.654 333.297L507.479 338.679L511.708 333.271ZM505.33 336.747L509.716 332.712C509.481 332.61 509.25 332.495 509.023 332.368L505.33 336.747ZM493.893 344.511L506.976 330.961L323.314 199.291C321.129 197.721 319.907 195.081 320.127 192.399C320.24 191.014 320.731 189.688 321.548 188.551L410.916 64.5102L408.565 60.0361L306.726 190.256C305.9 191.309 305.409 192.569 305.299 193.891L305.299 193.886C305.106 196.202 306.083 198.431 307.916 199.855L493.209 344.041C493.43 344.213 493.659 344.37 493.893 344.511ZM409.298 59.0983L411.625 63.5261L413.745 60.5836L411.45 56.3473L409.298 59.0983ZM412.175 55.4198L414.446 59.6108L416.54 56.7052L414.3 52.7021L412.175 55.4198ZM415.022 51.7793L417.237 55.738L419.3 52.8734L417.118 49.0988L415.022 51.7793ZM417.839 48.1768L419.996 51.9077L422.031 49.0837L419.907 45.533L417.839 48.1768ZM420.621 44.6204L422.719 48.1284L424.722 45.3483L422.657 42.0163L420.621 44.6204ZM423.367 41.1084L425.406 44.3987L427.37 41.6726L425.365 38.5539L423.367 41.1084ZM426.074 37.6477L428.053 40.7256L429.982 38.0478L428.037 35.1371L426.074 37.6477ZM428.739 34.2401L430.657 37.1111L432.549 34.4855L430.665 31.7769L428.739 34.2401ZM431.359 30.8889L433.216 33.5588L435.063 30.9951L433.241 28.4826L431.359 30.8889ZM433.933 27.5979L435.728 30.0727L437.528 27.5736L435.768 25.251L433.933 27.5979ZM436.456 24.3718L438.188 26.6578L439.936 24.2315L438.239 22.0921L436.456 24.3718ZM438.927 21.2126L440.596 23.3163L442.287 20.9692L440.652 19.0064L438.927 21.2126ZM441.334 18.1341L442.94 20.0624L444.579 17.7877L443.008 15.9945L441.334 18.1341ZM443.681 15.1335L445.223 16.8935L446.792 14.7153L445.284 13.0841L443.681 15.1335ZM445.959 12.2204L447.438 13.8193L448.937 11.7386L447.491 10.2619L445.959 12.2204ZM448.161 9.40459L449.577 10.8502L451 8.87474L449.665 7.59175C449.648 7.57606 449.632 7.56045 449.616 7.54493L448.161 9.40459ZM450.413 6.81196L451.638 7.98939L452.963 6.15066C452.483 5.77861 451.968 5.47477 451.431 5.23852C451.355 5.32646 451.28 5.41678 451.207 5.50947L450.284 6.69065C450.327 6.73056 450.37 6.771 450.413 6.81196ZM452.258 4.434C452.723 4.66745 453.171 4.94685 453.596 5.27254L454.426 4.12044C454.449 4.08804 454.473 4.05588 454.496 4.02395C454.073 3.90315 453.641 3.82272 453.206 3.78216C452.875 3.97063 452.558 4.18808 452.258 4.434ZM455.044 3.06213C455.118 3.08595 455.192 3.11087 455.266 3.1369C455.319 3.08502 455.372 3.03402 455.426 2.98389C455.298 3.00637 455.17 3.03246 455.044 3.06213ZM510.599 331.899C510.304 331.797 510.015 331.672 509.733 331.526L510.991 330.034L518.871 322.357L513.486 329.243L510.599 331.899ZM644.515 163.456C645.078 164.595 645.333 165.88 645.226 167.176C645.102 168.64 644.534 170.01 643.584 171.139L641.063 174.127C640.758 173.736 640.416 173.369 640.037 173.03L638.271 171.44L644.515 163.456ZM637.604 172.292L639.316 173.832C639.704 174.181 640.049 174.564 640.349 174.975L633.695 182.864L631.206 180.473L637.604 172.292ZM630.537 181.329L632.997 183.692L626.463 191.438L624.332 189.262L630.537 181.329ZM623.662 190.12L625.765 192.266L619.436 199.77L617.637 197.824L623.662 190.12ZM616.963 198.685L618.735 200.601L612.595 207.881L611.103 206.179L616.963 198.685ZM610.427 207.042L611.892 208.714L605.927 215.787L604.721 214.338L610.427 207.042ZM604.043 215.206L605.222 216.622L599.421 223.501L598.482 222.317L604.043 215.206ZM597.796 223.194L598.709 224.345L593.057 231.046L592.367 230.135L597.796 223.194ZM534.157 302.811L535.215 301.459L533.41 303.454L532.536 304.49L534.157 302.811ZM545.346 290.259L541.864 294.712L541.905 294.787L546.86 289.655L546.49 288.994L545.346 290.259ZM534.963 303.536L529.597 310.397L536.585 303.589L535.995 302.467L534.963 303.536ZM503.165 342.439L509.399 334.468L499.811 343.29L497.975 345.466C498.844 345.397 499.699 345.163 500.488 344.772L503.165 342.439ZM498.509 346.497C498.027 346.563 497.538 346.586 497.05 346.563L493.209 351.118L498.509 346.497ZM495.045 346.21L493.182 347.924L494.804 346.13C494.848 346.146 494.892 346.161 494.937 346.175C494.973 346.187 495.008 346.199 495.045 346.21ZM493.122 345.309L482.881 355.915L480.248 358.481C479.267 358.223 478.327 357.75 477.5 357.056L291.887 201.301C290.128 199.823 289.192 197.58 289.381 195.293L289.381 195.297C289.499 193.832 290.067 192.462 291.023 191.329L405.952 55.0646L408.014 58.9883L305.873 189.595C304.92 190.815 304.346 192.27 304.219 193.806C304 196.48 305.133 199.065 307.249 200.713L492.543 344.898C492.731 345.045 492.925 345.182 493.122 345.309ZM408.747 58.0505L406.707 54.1688L408.875 51.5978L410.889 55.3125L408.747 58.0505ZM411.614 54.3849L409.623 50.7114L411.766 48.1712L413.729 51.6807L411.614 54.3849ZM414.451 50.7579L412.51 47.2888L414.623 44.783L416.536 48.0914L414.451 50.7579ZM417.257 47.1694L415.367 43.9008L417.452 41.4289L419.313 44.5402L417.257 47.1694ZM420.027 43.6276L418.189 40.5552L420.243 38.1203L422.051 41.0389L420.027 43.6276ZM422.761 40.1309L420.976 37.2504L422.991 34.8619L424.747 37.5924L422.761 40.1309ZM425.455 36.6862L423.724 33.993L425.704 31.6451L427.406 34.1922L425.455 36.6862ZM428.107 33.2952L426.43 30.7845L428.373 28.4809L430.02 30.8495L428.107 33.2952ZM430.714 29.9616L429.092 27.6283L430.99 25.3779L432.582 27.5735L430.714 29.9616ZM433.274 26.6888L431.707 24.5279L433.558 22.3333L435.094 24.3611L433.274 26.6888ZM435.782 23.4819L434.271 21.4877L436.068 19.3564L437.549 21.2224L435.782 23.4819ZM438.237 20.3429L436.782 18.5099L438.522 16.4479L439.946 18.1579L438.237 20.3429ZM440.628 17.2856L439.23 15.6075L440.916 13.6083L442.284 15.1683L440.628 17.2856ZM442.957 14.3073L441.617 12.7781L443.231 10.8646L444.541 12.2814L442.957 14.3073ZM445.217 11.4178L443.934 10.0308L445.457 8.22464C445.622 8.36758 445.783 8.51805 445.937 8.67587L446.729 9.48411L445.217 11.4178ZM447.399 8.62677L446.71 7.92332C446.531 7.74007 446.345 7.56552 446.153 7.39989L447.108 6.2676C447.171 6.19272 447.235 6.11949 447.301 6.04789C447.816 6.26018 448.312 6.53132 448.78 6.86149L447.399 8.62677ZM449.446 6.00928C449.037 5.71622 448.607 5.46318 448.163 5.25003C448.456 5.02144 448.763 4.81858 449.083 4.64175C449.507 4.67747 449.93 4.74992 450.346 4.85938L449.446 6.00928ZM451.149 3.97318C451.095 3.95527 451.041 3.93792 450.987 3.92112C451.08 3.9007 451.172 3.88211 451.265 3.86535C451.226 3.90085 451.187 3.93679 451.149 3.97318ZM495.605 345.245C495.734 345.28 495.862 345.311 495.992 345.338L498.979 342.59L503.009 337.812L497.278 343.396L495.605 345.245ZM641.715 179.88C641.83 178.496 641.559 177.145 640.95 175.952L634.482 183.62L636.659 185.712C636.985 186.025 637.284 186.36 637.553 186.712L639.849 184.175C640.938 182.972 641.583 181.487 641.715 179.88ZM635.912 186.491L633.784 184.448L627.229 192.22L630.006 195.055L636.814 187.529C636.548 187.161 636.246 186.813 635.912 186.491ZM629.281 195.857L626.53 193.048L620.182 200.575L622.624 203.216L629.281 195.857ZM621.897 204.02L619.48 201.407L613.321 208.71L615.453 211.143L621.897 204.02ZM614.726 211.947L612.618 209.543L606.635 216.637L608.48 218.852L614.726 211.947ZM607.751 219.658L605.93 217.472L600.112 224.371L601.689 226.359L607.751 219.658ZM600.953 227.173L599.4 225.215L593.731 231.936L595.059 233.688L600.953 227.173ZM594.32 234.505L593.016 232.784L587.488 239.338L588.582 240.848L594.32 234.505ZM587.84 241.668L586.769 240.191L581.371 246.591L582.247 247.851L587.84 241.668ZM510.886 328.473L510.146 329.349L508.782 330.679L509.172 330.248L510.886 328.473ZM493.46 349.133L487.838 355.799L485.494 357.842C484.884 358.176 484.232 358.416 483.561 358.559L485.273 356.666L493.46 349.133ZM482.447 359.79C482.755 359.776 483.062 359.745 483.366 359.697L479.419 363.138L482.447 359.79ZM466.418 371.957L479.365 359.341C478.456 359.024 477.588 358.54 476.808 357.886L291.196 202.126C289.167 200.427 288.087 197.839 288.306 195.204C288.444 193.516 289.101 191.936 290.198 190.634L405.41 54.0353L403.601 50.5923L275.316 192.403C274.232 193.601 273.586 195.091 273.454 196.698L273.455 196.694C273.263 198.995 274.137 201.202 275.854 202.746L461.786 370.076C463.113 371.27 464.759 371.892 466.418 371.957ZM404.376 49.7348L406.166 53.1395L408.324 50.5807L406.558 47.3227L404.376 49.7348ZM407.326 46.4738L409.072 49.6943L411.204 47.1668L409.483 44.0903L407.326 46.4738ZM410.247 43.2448L411.948 46.2844L414.05 43.7918L412.375 40.8935L410.247 43.2448ZM413.14 40.0476L414.794 42.9096L416.867 40.4516L415.238 37.7278L413.14 40.0476ZM415.996 36.8898L417.604 39.5779L419.646 37.1574L418.064 34.6044L415.996 36.8898ZM418.819 33.7695L420.38 36.2875L422.381 33.9141L420.847 31.5277L418.819 33.7695ZM421.602 30.6932L423.114 33.0453L425.081 30.7132L423.595 28.4895L421.602 30.6932ZM424.344 27.6623L425.807 29.8525L427.736 27.5654L426.3 25.5001L424.344 27.6623ZM427.041 24.6802L428.455 26.7129L430.339 24.4799L428.952 22.5681L427.041 24.6802ZM429.692 21.75L431.056 23.6299L432.891 21.4535L431.555 19.6904L429.692 21.75ZM432.292 18.8761L433.604 20.608L435.386 18.4959L434.101 16.8765L432.292 18.8761ZM434.839 16.0605L436.1 17.6494L437.822 15.6076L436.588 14.1266L434.839 16.0605ZM437.322 13.3158L438.531 14.7672L440.199 12.7894L439.018 11.4414L437.322 13.3158ZM439.743 10.6397L440.899 11.9592L442.494 10.0682L442.214 9.76522C441.929 9.45686 441.624 9.17363 441.301 8.91669L439.743 10.6397ZM443.013 9.0352L443.197 9.23443L444.595 7.5766C444.147 7.28557 443.672 7.04242 443.177 6.84972C443.12 6.90885 443.063 6.96913 443.008 7.03058L442.027 8.11465C442.374 8.39508 442.704 8.70235 443.013 9.0352ZM444.076 6.05921C444.499 6.25497 444.907 6.48433 445.296 6.74595L446.189 5.68686C445.786 5.58932 445.376 5.52506 444.965 5.494C444.658 5.65928 444.361 5.84773 444.076 6.05921ZM446.94 4.77323C446.953 4.77733 446.967 4.78146 446.98 4.78562C446.996 4.79062 447.012 4.79567 447.028 4.80076L447.046 4.78507L447.063 4.7692C447.073 4.7604 447.083 4.75163 447.092 4.74288C447.059 4.74911 447.026 4.75557 446.993 4.76225C446.975 4.76584 446.957 4.76951 446.94 4.77323ZM637.406 188.493C638.049 189.738 638.338 191.149 638.219 192.585C638.076 194.316 637.33 195.957 636.118 197.216L634.077 199.329C633.835 199.003 633.569 198.692 633.281 198.398L630.767 195.832L637.406 188.493ZM630.042 196.634L632.508 199.151C632.804 199.454 633.074 199.778 633.315 200.119L626.391 207.289L623.364 204.016L630.042 196.634ZM622.637 204.82L625.64 208.067L618.887 215.061L616.173 211.965L622.637 204.82ZM615.446 212.769L618.136 215.839L611.604 222.603L609.181 219.694L615.446 212.769ZM608.452 220.5L610.852 223.382L604.525 229.934L602.373 227.221L608.452 220.5ZM601.636 228.034L603.767 230.72L597.628 237.078L595.726 234.568L601.636 228.034ZM594.987 235.385L596.867 237.866L590.901 244.045L589.233 241.745L594.987 235.385ZM588.491 242.566L590.137 244.836L584.332 250.848L582.883 248.765L588.491 242.566ZM582.139 249.587L583.567 251.64L577.908 257.5L576.665 255.639L582.139 249.587ZM575.919 256.464L577.142 258.294L571.623 264.01L570.571 262.375L575.919 256.464ZM484.479 355.931L484.972 355.385L483.758 356.569L483.537 356.797L484.479 355.931ZM472.52 369.151L476.571 364.673L470.856 369.931L469.374 371.466C469.756 371.319 470.128 371.138 470.486 370.924L472.52 369.151ZM468.206 372.911C468.117 372.927 468.027 372.942 467.936 372.955L466.769 374.164L468.206 372.911ZM465.404 372.944L455.524 382.571L452.794 385.083C450.448 385.532 447.924 384.877 446.076 383.101L259.824 204.196C258.171 202.607 257.333 200.386 257.522 198.103L257.517 198.103C257.66 196.371 258.407 194.726 259.614 193.471L401.479 46.5558L403.066 49.5749L274.514 191.681C273.267 193.06 272.527 194.764 272.374 196.609C272.155 199.249 273.16 201.779 275.127 203.552L461.063 370.883C462.325 372.018 463.839 372.702 465.404 372.944ZM403.842 48.7173L402.273 45.7334L404.466 43.4622L406.013 46.3167L403.842 48.7173ZM406.781 45.4678L405.253 42.6476L407.42 40.4034L408.926 43.0964L406.781 45.4678ZM409.691 42.2508L408.204 39.5916L410.342 37.3774L411.807 39.912L409.691 42.2508ZM412.572 39.0661L411.126 36.565L413.236 34.3804L414.659 36.7595L412.572 39.0661ZM415.417 35.9214L414.014 33.575L416.092 31.4226L417.472 33.6497L415.417 35.9214ZM418.227 32.8148L416.867 30.6198L418.906 28.5087L420.242 30.5874L418.227 32.8148ZM420.997 29.7529L419.681 27.7058L421.685 25.6304L422.977 27.5642L420.997 29.7529ZM423.725 26.737L422.454 24.8341L424.42 22.7977L425.667 24.5906L423.725 26.737ZM426.409 23.7707L425.183 22.0079L427.104 20.019L428.305 21.6752L426.409 23.7707ZM429.045 20.8571L427.865 19.2304L429.737 17.2913L430.892 18.815L429.045 20.8571ZM431.629 18.0007L430.496 16.5058L432.313 14.6237L433.421 16.0195L431.629 18.0007ZM434.159 15.2034L433.074 13.8359L434.831 12.0164L435.891 13.289L434.159 15.2034ZM436.624 12.4782L435.608 11.258L435.587 11.2331L437.151 9.61402C437.557 9.91191 437.941 10.2502 438.298 10.6284L436.624 12.4782ZM439.02 9.82987C438.67 9.46444 438.296 9.13279 437.903 8.83522L438.913 7.78932C438.958 7.7423 439.004 7.696 439.05 7.65041C439.522 7.82315 439.976 8.03938 440.407 8.29691L439.02 9.82987ZM441.143 7.48286C440.772 7.24941 440.386 7.04327 439.987 6.86569C440.267 6.6673 440.558 6.49003 440.857 6.33391C441.255 6.36125 441.647 6.41781 442.03 6.50255L441.143 7.48286ZM442.91 5.61623L442.908 5.61565L442.911 5.615L442.91 5.61623ZM634.724 205.286C634.845 203.814 634.549 202.36 633.893 201.075L627.126 208.083L629.903 211.085C630.161 211.364 630.401 211.658 630.62 211.964L632.383 210.246C633.738 208.924 634.567 207.164 634.724 205.286ZM629.108 211.816L626.375 208.861L619.602 215.877L622.827 219.557L629.836 212.728C629.617 212.409 629.374 212.103 629.108 211.816ZM622.054 220.31L618.851 216.654L612.3 223.439L615.231 226.959L622.054 220.31ZM614.458 227.712L611.548 224.218L605.203 230.789L607.862 234.139L614.458 227.712ZM607.082 234.899L604.445 231.574L598.288 237.95L600.693 241.124L607.082 234.899ZM599.912 241.885L597.528 238.738L591.546 244.934L593.714 247.924L599.912 241.885ZM592.931 248.688L590.782 245.725L584.961 251.753L586.909 254.554L592.931 248.688ZM586.125 255.318L584.197 252.545L578.524 258.421L580.266 261.028L586.125 255.318ZM579.48 261.794L577.757 259.215L572.224 264.945L573.773 267.354L579.48 261.794ZM572.983 268.124L571.453 265.744L566.049 271.341L567.417 273.547L572.983 268.124ZM457.342 382.365L457.245 382.466L457.014 382.667L457.342 382.365ZM438.793 397.965L451.483 386.29C449.272 386.321 447.048 385.518 445.334 383.872L259.082 204.972C257.193 203.156 256.231 200.621 256.447 198.01C256.607 196.036 257.461 194.154 258.843 192.725L400.95 45.5502L399.557 42.8992L243.921 194.541C242.567 195.859 241.737 197.624 241.581 199.502L241.576 199.502C241.389 201.77 242.196 204.007 243.792 205.636L430.362 396.111C432.617 398.416 435.954 399.039 438.793 397.965ZM400.368 42.1089L401.745 44.7277L403.927 42.4674L402.57 39.9634L400.368 42.1089ZM403.374 39.1804L404.714 41.6528L406.87 39.4198L405.55 37.0602L403.374 39.1804ZM406.351 36.2796L407.654 38.608L409.78 36.4057L408.498 34.1877L406.351 36.2796ZM409.3 33.406L410.565 35.5932L412.662 33.4209L411.418 31.342L409.3 33.406ZM412.214 30.5668L413.44 32.6156L415.505 30.4762L414.301 28.5332L412.214 30.5668ZM415.095 27.76L416.281 29.6733L418.306 27.5758L417.142 25.7655L415.095 27.76ZM417.936 24.9918L419.081 26.7729L421.071 24.7117L419.948 23.031L417.936 24.9918ZM420.736 22.2632L421.84 23.9154L423.792 21.8941L422.711 20.3394L420.736 22.2632ZM423.493 19.5775L424.555 21.1043L426.46 19.1312L425.421 17.6988L423.493 19.5775ZM426.202 16.9376L427.221 18.3426L429.077 16.4202L428.082 15.1062L426.202 16.9376ZM428.861 14.3475L429.836 15.6347L431.636 13.7701L431.053 13.0348C430.93 12.8792 430.802 12.7289 430.671 12.5837L428.861 14.3475ZM431.907 12.3646L432.397 12.9823L434.097 11.2211C433.752 10.8897 433.382 10.5893 432.992 10.3221L431.448 11.8262C431.606 11.999 431.759 12.1785 431.907 12.3646ZM433.779 9.55514C434.154 9.82408 434.511 10.1207 434.848 10.4435L436.221 9.02209C435.801 8.79248 435.365 8.60066 434.918 8.447C434.883 8.48014 434.848 8.51363 434.813 8.54749L433.779 9.55514ZM435.888 7.66922C436.265 7.82926 436.634 8.01441 436.991 8.22452L437.868 7.31641C437.497 7.24135 437.118 7.19148 436.734 7.1677C436.443 7.31644 436.16 7.48383 435.888 7.66922ZM630.402 213.689C631.062 215.008 631.36 216.499 631.237 217.992C631.07 220.023 630.15 221.901 628.647 223.287L627.19 224.628C626.983 224.33 626.758 224.043 626.515 223.766L623.542 220.373L630.402 213.689ZM622.769 221.125L625.704 224.475C625.954 224.76 626.181 225.057 626.387 225.366L619.32 231.869L615.926 227.793L622.769 221.125ZM615.153 228.546L618.527 232.598L611.655 238.921L608.538 234.991L615.153 228.546ZM607.758 235.751L610.857 239.655L604.212 245.768L601.352 241.993L607.758 235.751ZM600.571 242.754L603.412 246.504L596.978 252.425L594.356 248.809L600.571 242.754ZM593.572 249.573L596.176 253.163L589.935 258.905L587.535 255.455L593.572 249.573ZM586.751 256.219L589.133 259.643L583.068 265.223L580.877 261.943L586.751 256.219ZM580.091 262.708L582.265 265.962L576.367 271.388L574.37 268.282L580.091 262.708ZM573.58 269.052L575.56 272.131L569.814 277.417L568 274.489L573.58 269.052ZM567.207 275.262L569.004 278.162L563.404 283.315L561.76 280.568L567.207 275.262ZM560.961 281.347L562.588 284.066L557.119 289.097L555.637 286.534L560.961 281.347ZM437.149 399.477C434.453 399.825 431.63 398.952 429.589 396.869L243.014 206.388C241.201 204.539 240.284 201.995 240.496 199.413C240.671 197.277 241.618 195.273 243.159 193.772L399.031 41.8995L397.81 39.5758L228.218 195.615C226.717 196.996 225.796 198.878 225.629 200.909L225.628 200.914C225.438 203.173 226.214 205.424 227.757 207.091L414.647 409.136C417.498 412.216 422.204 412.594 425.498 410.138L426.717 409.076L437.149 399.477ZM399.843 41.1091L398.637 38.8151L400.846 36.7824L402.034 38.9741L399.843 41.1091ZM402.837 38.1911L401.665 36.0284L403.849 34.0196L405.002 36.0818L402.837 38.1911ZM405.804 35.3011L404.666 33.2677L406.82 31.2857L407.939 33.2207L405.804 35.3011ZM408.741 32.439L407.639 30.5323L409.764 28.5767L410.847 30.3869L408.741 32.439ZM411.643 29.6118L410.577 27.8294L412.671 25.9024L413.717 27.5906L411.643 29.6118ZM414.511 26.8174L413.481 25.1566L415.535 23.267L416.544 24.8362L414.511 26.8174ZM417.338 24.0624L416.347 22.5203L418.366 20.6626L419.337 22.1154L417.338 24.0624ZM420.125 21.3476L419.172 19.9212L421.152 18.0986L422.084 19.4383L420.125 21.3476ZM422.866 18.6765L421.952 17.3626L423.887 15.583L424.779 16.813L422.866 18.6765ZM425.56 16.0518L424.686 14.8472L426.508 13.1712C426.802 13.4662 427.08 13.7844 427.339 14.1255L427.423 14.2366L425.56 16.0518ZM428.202 13.4779L428.2 13.4754C427.92 13.1062 427.62 12.761 427.302 12.4401L428.832 11.0329C429.203 11.2683 429.559 11.5328 429.897 11.8259L428.202 13.4779ZM430.676 11.0673C430.35 10.7798 430.008 10.5163 429.653 10.2773L430.714 9.30084C430.723 9.29254 430.732 9.28426 430.741 9.276C430.756 9.26293 430.77 9.24992 430.784 9.23696C431.213 9.37587 431.628 9.54752 432.027 9.75029L430.676 11.0673ZM432.839 8.95944C432.502 8.77204 432.154 8.60488 431.796 8.45881C432.057 8.28911 432.326 8.13521 432.602 7.99753C432.968 8.01681 433.333 8.05972 433.694 8.12611L432.839 8.95944ZM627.755 230.695C627.882 229.161 627.596 227.663 626.938 226.322L620.009 232.697L623.137 236.453C623.366 236.728 623.579 237.014 623.775 237.309L624.908 236.322C626.561 234.878 627.575 232.878 627.755 230.695ZM622.305 237.135L619.216 233.426L612.326 239.766L615.854 244.213L622.956 238.023C622.759 237.716 622.542 237.42 622.305 237.135ZM615.038 244.925L611.527 240.501L604.866 246.63L608.133 250.943L615.038 244.925ZM607.316 251.656L604.066 247.366L597.614 253.302L600.64 257.475L607.316 251.656ZM599.821 258.189L596.812 254.04L590.555 259.797L593.356 263.824L599.821 258.189ZM592.537 264.538L589.753 260.535L583.674 266.129L586.264 270.006L592.537 264.538ZM585.444 270.72L582.87 266.868L576.958 272.308L579.352 276.03L585.444 270.72ZM578.529 276.748L576.151 273.051L570.392 278.349L572.602 281.914L578.529 276.748ZM571.776 282.634L569.582 279.094L563.968 284.26L566.005 287.664L571.776 282.634ZM565.174 288.389L563.153 285.01L557.671 290.053L559.546 293.295L565.174 288.389ZM558.714 294.019L556.855 290.804L551.498 295.733L553.219 298.809L558.714 294.019ZM552.387 299.535L550.681 296.485L545.439 301.308L547.015 304.217L552.387 299.535ZM410.804 422.946L422.683 412.592C419.569 413.295 416.171 412.368 413.854 409.862L226.963 207.817C225.218 205.927 224.336 203.374 224.55 200.816C224.741 198.519 225.785 196.387 227.488 194.821L397.29 38.5872L396.221 36.5526L212.517 196.679C210.858 198.122 209.851 200.118 209.669 202.306L209.664 202.305C209.471 204.588 210.204 206.8 211.715 208.525L398.925 422.145C401.986 425.633 407.309 425.991 410.804 422.946ZM397.062 35.8193L398.117 37.8265L400.316 35.8038L399.277 33.8883L397.062 35.8193ZM400.111 33.1613L401.135 35.0498L403.307 33.0514L402.301 31.2529L400.111 33.1613ZM403.133 30.5276L404.124 32.2995L406.267 30.3284L405.293 28.6447L403.133 30.5276ZM406.127 27.9176L407.085 29.575L409.199 27.6307L408.259 26.0596L406.127 27.9176ZM409.086 25.3382L410.011 26.8834L412.092 24.9684L411.187 23.5075L409.086 25.3382ZM412.013 22.7872L412.903 24.2226L414.943 22.3456L414.072 20.9922L412.013 22.7872ZM414.9 20.2706L415.754 21.5988L417.759 19.7543L416.925 18.5059L414.9 20.2706ZM417.747 17.7892L418.565 19.013L420.53 17.2043L419.906 16.3061C419.848 16.2234 419.79 16.1416 419.73 16.0609L417.747 17.7892ZM420.791 15.6928L421.33 16.4683L423.233 14.7175C422.956 14.3839 422.659 14.0715 422.345 13.7817L420.544 15.3511C420.628 15.4632 420.711 15.5771 420.791 15.6928ZM423.163 13.0679C423.468 13.3549 423.757 13.6611 424.029 13.9856L425.698 12.4499C425.371 12.1919 425.03 11.9582 424.676 11.7492L423.163 13.0679ZM425.528 11.0064C425.864 11.2208 426.189 11.4557 426.501 11.711L427.833 10.4853C427.448 10.3052 427.053 10.1532 426.649 10.0297C426.639 10.0381 426.63 10.0465 426.62 10.0549L425.528 11.0064ZM427.702 9.25421C428.036 9.38515 428.365 9.53425 428.685 9.70132L429.524 8.92984C429.311 8.89445 429.095 8.86672 428.878 8.84684C428.749 8.83499 428.62 8.82599 428.491 8.81981C428.222 8.94937 427.959 9.09414 427.702 9.25421ZM623.491 238.99C624.134 240.35 624.411 241.86 624.283 243.399C624.087 245.738 622.987 247.857 621.172 249.357L620.381 250.013C620.189 249.709 619.98 249.414 619.755 249.129L616.527 245.061L623.491 238.99ZM615.71 245.773L618.906 249.8C619.137 250.092 619.349 250.395 619.54 250.709L612.423 256.604L608.788 251.807L615.71 245.773ZM607.97 252.519L611.588 257.295L604.667 263.028L601.277 258.353L607.97 252.519ZM600.458 259.067L603.832 263.72L597.138 269.263L593.977 264.717L600.458 259.067ZM593.158 265.431L596.304 269.954L589.819 275.326L586.869 270.912L593.158 265.431ZM586.05 271.626L588.984 276.017L582.693 281.227L579.943 276.949L586.05 271.626ZM579.119 277.667L581.855 281.921L575.743 286.984L573.179 282.845L579.119 277.667ZM572.353 283.565L574.903 287.68L568.959 292.603L566.569 288.607L572.353 283.565ZM565.737 289.331L568.113 293.303L562.323 298.099L560.097 294.248L565.737 289.331ZM559.266 294.973L561.478 298.799L555.83 303.476L553.758 299.773L559.266 294.973ZM552.926 300.499L554.984 304.177L549.469 308.745L547.543 305.191L552.926 300.499ZM546.709 305.918L548.622 309.447L543.234 313.909L541.445 310.506L546.709 305.918ZM408.437 425.554L395.466 436.297C391.777 439.352 386.281 438.842 383.211 435.16L195.683 209.965C194.219 208.208 193.516 205.985 193.704 203.707L193.708 203.712C193.904 201.368 195.004 199.253 196.819 197.749L394.772 33.7957L395.704 35.5692L211.803 195.868C209.938 197.496 208.792 199.748 208.589 202.217C208.378 204.795 209.2 207.288 210.905 209.234L398.113 422.859C400.746 425.861 404.875 426.806 408.437 425.554ZM396.545 34.836L395.626 33.0879L397.847 31.2488L398.75 32.9144L396.545 34.836ZM399.584 32.1874L398.695 30.5468L400.889 28.7292L401.762 30.289L399.584 32.1874ZM402.594 29.5637L401.735 28.0285L403.9 26.2352L404.742 27.6912L402.594 29.5637ZM405.576 26.9642L404.748 25.5326L406.885 23.763L407.695 25.1171L405.576 26.9642ZM408.523 24.3957L407.727 23.0656L409.832 21.322L410.61 22.5765L408.523 24.3957ZM411.436 21.8562L410.673 20.6254L412.737 18.9159L413.482 20.0733L411.436 21.8562ZM414.309 19.3517L413.58 18.2177L415.57 16.5699C415.788 16.8347 415.994 17.1119 416.187 17.401L416.319 17.5997L414.309 19.3517ZM417.142 16.883L417.089 16.8042C416.874 16.483 416.645 16.1749 416.402 15.8807L418.183 14.4058C418.483 14.6613 418.77 14.9358 419.04 15.2282L417.142 16.883ZM419.853 14.5198C419.59 14.2337 419.314 13.963 419.025 13.7084L420.524 12.4668C420.86 12.6537 421.185 12.8607 421.496 13.0871L419.853 14.5198ZM422.33 12.3603C422.035 12.1346 421.728 11.925 421.411 11.7321L422.515 10.8175C422.897 10.9275 423.272 11.0619 423.638 11.2203L422.33 12.3603ZM424.529 10.4435C424.227 10.2948 423.919 10.1613 423.606 10.0432C423.851 9.89577 424.103 9.76111 424.36 9.63945C424.689 9.6529 425.018 9.68428 425.344 9.7334L424.529 10.4435ZM620.816 256.103C620.942 254.573 620.677 253.059 620.057 251.687L613.077 257.468L616.372 261.815C616.598 262.114 616.806 262.422 616.997 262.74L617.432 262.397C619.376 260.861 620.609 258.566 620.816 256.103ZM615.506 262.465L612.243 258.159L605.304 263.906L609.022 269.033L616.139 263.417C615.949 263.089 615.738 262.771 615.506 262.465ZM608.172 269.704L604.469 264.598L597.759 270.156L601.246 275.169L608.172 269.704ZM600.397 275.84L596.924 270.847L590.424 276.231L593.695 281.128L600.397 275.84ZM592.846 281.798L589.589 276.923L583.284 282.145L586.354 286.92L592.846 281.798ZM585.502 287.593L582.445 282.839L576.319 287.913L579.202 292.564L585.502 287.593ZM578.347 293.238L575.479 288.609L569.522 293.543L572.228 298.067L578.347 293.238ZM571.368 298.745L568.676 294.244L562.873 299.05L565.413 303.445L571.368 298.745ZM564.555 304.122L562.028 299.751L556.368 304.438L558.753 308.7L564.555 304.122ZM557.894 309.378L555.522 305.139L549.996 309.716L552.233 313.845L557.894 309.378ZM551.373 314.523L549.148 310.418L543.749 314.89L545.848 318.883L551.373 314.523ZM544.983 319.566L542.896 315.596L399.507 434.36L544.983 319.566ZM380.127 449.653L394.783 438.088C390.737 440.408 385.464 439.558 382.382 435.857L194.854 210.663C193.207 208.685 192.418 206.187 192.628 203.623C192.847 200.988 194.086 198.608 196.127 196.921L394.257 32.8166L393.445 31.2709L181.118 198.813C179.174 200.349 177.941 202.639 177.739 205.107L177.734 205.107C177.546 207.38 178.223 209.619 179.645 211.41L367.493 448.174C370.571 452.059 376.239 452.72 380.127 449.653ZM394.312 30.5868L395.112 32.1087L397.321 30.2787L396.537 28.8311L394.312 30.5868ZM397.397 28.1524L398.169 29.5767L400.352 27.7687L399.596 26.4173L397.397 28.1524ZM400.454 25.7397L401.198 27.068L403.351 25.2847L402.624 24.0278L400.454 25.7397ZM403.485 23.348L404.199 24.5821L406.323 22.823L405.626 21.6587L403.485 23.348ZM406.482 20.9838L407.165 22.1257L409.257 20.3931L408.754 19.5816C408.699 19.494 408.644 19.4075 408.588 19.322L406.482 20.9838ZM409.676 19.0162L410.098 19.6964L412.135 18.0089C411.906 17.6915 411.66 17.389 411.401 17.1023L409.44 18.6496C409.52 18.7699 409.599 18.8921 409.676 19.0162ZM412.254 16.4286C412.507 16.7106 412.747 17.0062 412.973 17.3147L414.837 15.7706C414.574 15.5126 414.298 15.2699 414.01 15.0432L412.254 16.4286ZM414.879 14.3578C415.154 14.5847 415.419 14.8252 415.673 15.0787L417.295 13.7348C416.996 13.5344 416.686 13.3505 416.366 13.184L414.879 14.3578ZM417.286 12.4584C417.586 12.6316 417.877 12.8191 418.158 13.0202L419.445 11.9539C419.099 11.8149 418.742 11.6955 418.378 11.5968L417.286 12.4584ZM419.513 10.8233C419.808 10.9299 420.097 11.0491 420.379 11.1806L421.161 10.5332C420.851 10.4916 420.538 10.4656 420.225 10.4551C419.984 10.5664 419.746 10.6891 419.513 10.8233ZM616.637 264.407C617.228 265.784 617.479 267.293 617.354 268.808C617.135 271.438 615.806 273.85 613.696 275.437L613.625 275.491C613.43 275.149 613.217 274.817 612.984 274.496L609.66 269.912L616.637 264.407ZM608.809 270.584L612.106 275.13C612.344 275.457 612.559 275.798 612.752 276.149L605.649 281.501L601.867 276.062L608.809 270.584ZM601.017 276.732L604.786 282.152L597.864 287.368L594.3 282.033L601.017 276.732ZM593.45 282.703L597.002 288.018L590.305 293.064L586.944 287.837L593.45 282.703ZM586.091 288.509L589.439 293.716L582.947 298.608L579.777 293.492L586.091 288.509ZM578.922 294.166L582.08 299.262L575.782 304.008L572.789 299.006L578.922 294.166ZM571.93 299.684L574.91 304.665L568.786 309.279L565.962 304.393L571.93 299.684ZM565.103 305.07L567.916 309.935L561.956 314.427L559.288 309.658L565.103 305.07ZM558.43 310.336L561.085 315.083L555.277 319.46L552.757 314.812L558.43 310.336ZM551.897 315.49L554.405 320.117L548.74 324.385L546.361 319.859L551.897 315.49ZM545.496 320.542L547.863 325.046L364.789 463.004C360.703 466.08 354.866 465.267 351.778 461.194L163.611 212.855C162.232 211.036 161.576 208.78 161.764 206.507L161.768 206.512C161.986 203.887 163.316 201.47 165.421 199.882L392.233 28.9657L392.936 30.3026L180.446 197.973C178.267 199.691 176.889 202.26 176.658 205.023C176.445 207.572 177.208 210.082 178.799 212.086L366.647 448.85C370.095 453.195 376.446 453.934 380.799 450.497L545.496 320.542ZM393.803 29.6184L393.112 28.3036L395.34 26.6241L396.017 27.8715L393.803 29.6184ZM396.877 27.1928L396.212 25.967L398.415 24.3071L399.064 25.4669L396.877 27.1928ZM399.923 24.7892L399.286 23.6509L401.459 22.0132L402.08 23.087L399.923 24.7892ZM402.942 22.4072L402.333 21.3547L404.435 19.7705C404.65 20.061 404.851 20.3634 405.039 20.677L405.07 20.728L402.942 22.4072ZM405.925 20.0532C405.729 19.731 405.52 19.4197 405.299 19.12L407.237 17.6592C407.486 17.9103 407.725 18.1753 407.951 18.4541L405.925 20.0532ZM408.801 17.784C408.58 17.5117 408.349 17.2513 408.108 17.003L409.842 15.6961C410.116 15.8968 410.38 16.111 410.633 16.3381L408.801 17.784ZM411.496 15.6574C411.253 15.4332 411.002 15.2199 410.742 15.018L412.209 13.9123C412.511 14.0602 412.805 14.2227 413.09 14.3992L411.496 15.6574ZM413.985 13.6931C413.719 13.515 413.444 13.3483 413.163 13.1936L414.249 12.3754C414.592 12.4631 414.928 12.5684 415.256 12.6905L413.985 13.6931ZM416.229 11.922C415.966 11.806 415.698 11.7 415.425 11.6045C415.651 11.4796 415.88 11.3649 416.113 11.2605C416.403 11.2692 416.694 11.291 416.985 11.326L416.229 11.922ZM613.895 281.518C614.019 280.019 613.785 278.522 613.226 277.147L606.268 282.39L609.597 287.177C609.839 287.525 610.06 287.886 610.258 288.258C612.355 286.616 613.672 284.181 613.895 281.518ZM608.711 287.795L605.404 283.041L598.466 288.269L602.3 294.006L609.377 288.902C609.18 288.521 608.958 288.151 608.711 287.795ZM601.425 294.638L597.604 288.919L590.891 293.977L594.519 299.618L601.425 294.638ZM593.641 300.251L590.026 294.629L583.52 299.532L586.954 305.073L593.641 300.251ZM586.075 305.707L582.653 300.185L576.34 304.942L579.594 310.381L586.075 305.707ZM578.71 311.019L575.468 305.599L569.332 310.223L572.416 315.558L578.71 311.019ZM571.534 316.194L568.461 310.879L562.489 315.379L565.414 320.608L571.534 316.194ZM564.532 321.244L561.618 316.035L555.798 320.421L558.573 325.541L564.532 321.244ZM557.69 326.178L554.926 321.078L549.25 325.355L551.884 330.365L557.69 326.178ZM550.996 331.006L548.373 326.016L365.434 463.869C360.874 467.308 354.357 466.399 350.912 461.848L162.745 213.509C161.205 211.478 160.472 208.958 160.683 206.423C160.926 203.488 162.417 200.794 164.766 199.021L391.724 27.9978L391.122 26.8526L149.719 200.946C147.449 202.586 146.017 205.124 145.784 207.911C145.596 210.184 146.231 212.451 147.573 214.299L336.059 474.213C339.155 478.484 345.165 479.449 349.445 476.359L550.996 331.006ZM392.012 26.2111L392.603 27.3357L394.82 25.6646L394.244 24.6011L392.012 26.2111ZM395.127 23.9644L395.692 25.0076L397.883 23.3566L397.61 22.8677C397.517 22.7025 397.421 22.5404 397.322 22.3813L395.127 23.9644ZM398.552 22.3384L398.754 22.7004L400.893 21.0888C400.698 20.7997 400.491 20.521 400.273 20.2532L398.2 21.7479C398.322 21.9405 398.439 22.1374 398.552 22.3384ZM401.154 19.6177C401.366 19.8807 401.569 20.1533 401.761 20.4349L403.753 18.9335C403.535 18.6907 403.307 18.4583 403.069 18.2367L401.154 19.6177ZM403.961 17.5933C404.189 17.8132 404.409 18.0425 404.619 18.2807L406.425 16.9205C406.182 16.7215 405.931 16.534 405.674 16.3583L403.961 17.5933ZM406.6 15.6904C406.843 15.8681 407.08 16.0557 407.31 16.253L408.881 15.0696C408.612 14.9151 408.336 14.7723 408.054 14.6419L406.6 15.6904ZM409.047 13.9257C409.308 14.0632 409.564 14.2105 409.813 14.3672L411.054 13.4321C410.747 13.326 410.433 13.2339 410.114 13.1563L409.047 13.9257ZM411.326 12.387C411.578 12.4718 411.826 12.5651 412.07 12.6667L412.802 12.1151C412.531 12.0865 412.261 12.0689 411.991 12.0624C411.766 12.1616 411.544 12.2699 411.326 12.387ZM609.827 289.909C610.348 291.277 610.564 292.754 610.442 294.224C610.221 296.898 608.938 299.331 606.891 301.019C606.688 300.622 606.461 300.235 606.21 299.858L602.9 294.904L609.827 289.909ZM602.025 295.536L605.312 300.455C605.574 300.849 605.807 301.254 606.01 301.671L598.969 306.54L595.103 300.527L602.025 295.536ZM594.226 301.16L598.081 307.155L591.195 311.917L587.524 305.993L594.226 301.16ZM586.645 306.627L590.305 312.532L583.638 317.143L580.15 311.311L586.645 306.627ZM579.266 311.949L582.743 317.762L576.276 322.234L572.959 316.497L579.266 311.949ZM572.077 317.133L575.383 322.852L569.1 327.197L565.944 321.556L572.077 317.133ZM565.062 322.192L568.208 327.814L562.095 332.041L559.091 326.498L565.062 322.192ZM558.208 327.135L561.202 332.659L555.252 336.774L552.391 331.33L558.208 327.135ZM551.503 331.971L554.354 337.395L334.106 489.715C331.936 491.213 329.312 491.783 326.709 491.313C324.111 490.844 321.849 489.394 320.341 487.228L131.535 215.743C130.23 213.867 129.612 211.582 129.803 209.314L129.799 209.309C130.044 206.356 131.583 203.696 134.018 202.011L390.101 24.9114C390.126 24.9584 390.151 25.0057 390.176 25.0531L390.615 25.8876L149.085 200.073C146.556 201.896 144.963 204.716 144.704 207.822C144.494 210.347 145.202 212.873 146.695 214.932L335.181 474.842C338.63 479.595 345.313 480.669 350.079 477.232L551.503 331.971ZM391.505 25.2461L391.139 24.5505C391.093 24.4632 391.046 24.3765 390.999 24.2904L393.173 22.7865C393.367 23.0643 393.55 23.3514 393.721 23.6474L391.505 25.2461ZM394.601 23.0129C394.431 22.7248 394.251 22.4445 394.061 22.1723L396.104 20.7597C396.314 20.9943 396.516 21.2387 396.709 21.4926L394.601 23.0129ZM397.586 20.86C397.399 20.6116 397.203 20.3716 397 20.14L398.893 18.831C399.119 19.0267 399.338 19.2314 399.549 19.445L397.586 20.86ZM400.437 18.804C400.235 18.5939 400.026 18.3912 399.811 18.1964L401.507 17.0231C401.751 17.1794 401.988 17.3451 402.218 17.5198L400.437 18.804ZM403.131 16.8616C402.914 16.6875 402.691 16.5211 402.463 16.3624L403.893 15.3734C404.157 15.4886 404.417 15.6143 404.671 15.7505L403.131 16.8616ZM405.636 15.055C405.401 14.9162 405.162 14.7857 404.919 14.6637L405.974 13.9337C406.273 14.0021 406.567 14.0828 406.856 14.1753L405.636 15.055ZM407.92 13.4079C407.694 13.3186 407.465 13.2361 407.233 13.1606C407.439 13.054 407.647 12.9551 407.859 12.8637C408.111 12.8684 408.363 12.8824 408.616 12.9059L407.92 13.4079ZM606.989 306.93C607.111 305.466 606.921 304.029 606.436 302.681L599.55 307.443L602.827 312.539C603.084 312.941 603.315 313.354 603.519 313.776C605.521 312.046 606.769 309.614 606.989 306.93ZM601.917 313.121L598.662 308.058L591.761 312.83L595.649 319.104L602.484 314.562C602.538 314.526 602.592 314.49 602.645 314.453C602.436 313.996 602.193 313.551 601.917 313.121ZM594.748 319.702L590.871 313.446L584.191 318.066L587.894 324.256L594.748 319.702ZM586.988 324.858L583.296 318.685L576.815 323.167L580.345 329.272L586.988 324.858ZM579.442 329.872L575.923 323.785L569.627 328.139L572.994 334.156L579.442 329.872ZM572.091 334.756L568.734 328.756L562.61 332.992L565.824 338.92L572.091 334.756ZM564.921 339.52L561.717 333.609L555.756 337.732L558.825 343.571L564.921 339.52ZM557.917 344.173L554.858 338.353L334.725 490.6C332.317 492.265 329.402 492.895 326.517 492.375C323.628 491.85 321.122 490.239 319.451 487.84L130.645 216.356C129.198 214.274 128.515 211.741 128.724 209.221C128.996 205.944 130.702 202.993 133.404 201.125L389.544 23.9799C389.375 23.7228 389.197 23.4729 389.01 23.2307L118.32 203.08C115.717 204.811 114.071 207.592 113.815 210.712L113.819 210.717C113.623 213.019 114.208 215.26 115.497 217.188L304.622 500.247C306.137 502.506 308.436 504.047 311.108 504.578C313.78 505.109 316.501 504.575 318.768 503.07L557.917 344.173ZM389.916 22.6286C390.097 22.8665 390.271 23.1112 390.437 23.3622L392.514 21.9255C392.329 21.7049 392.137 21.4916 391.937 21.2857L389.916 22.6286ZM392.85 20.6791C393.042 20.8827 393.227 21.0927 393.406 21.3089L395.333 19.9764C395.131 19.7906 394.924 19.6124 394.712 19.4422L392.85 20.6791ZM395.654 18.8165C395.855 18.9867 396.051 19.1637 396.242 19.3472L397.998 18.1327C397.782 17.9809 397.561 17.8365 397.334 17.6999L395.654 18.8165ZM398.322 17.0437C398.533 17.1829 398.74 17.3285 398.942 17.4802L400.461 16.4296C400.225 16.3122 399.984 16.2029 399.739 16.1021L398.322 17.0437ZM400.803 15.3955C401.026 15.5029 401.246 15.617 401.462 15.7375L402.647 14.9181C402.379 14.8383 402.108 14.7688 401.835 14.7097L400.803 15.3955ZM403.131 13.9393C403.34 14.005 403.547 14.0764 403.752 14.1534L404.415 13.6951C404.185 13.6771 403.955 13.6667 403.726 13.6639C403.525 13.749 403.327 13.8408 403.131 13.9393ZM603.051 315.48C603.494 316.805 603.665 318.208 603.546 319.633C603.323 322.325 602.106 324.763 600.146 326.53C599.94 326.082 599.704 325.645 599.44 325.22L596.217 320.021L603.051 315.48ZM595.316 320.619L598.521 325.791C598.81 326.257 599.062 326.74 599.275 327.236C599.102 327.361 598.925 327.481 598.744 327.597L592.341 331.691L588.448 325.183L595.316 320.619ZM587.542 325.785L591.425 332.276L584.603 336.638L580.885 330.208L587.542 325.785ZM579.983 330.807L583.691 337.222L577.075 341.452L573.522 335.1L579.983 330.807ZM572.619 335.7L576.163 342.035L569.738 346.143L566.34 339.872L572.619 335.7ZM565.437 340.472L568.826 346.726L562.582 350.718L559.329 344.53L565.437 340.472ZM558.422 345.133L561.666 351.304L303.42 516.42C298.54 519.54 292.031 518.118 288.899 513.251L99.455 218.622C98.1984 216.67 97.6337 214.416 97.8261 212.105L97.8255 212.11C98.0983 208.823 99.8459 205.921 102.623 204.145L387.758 21.837C387.949 22.0203 388.136 22.2099 388.316 22.4057L117.732 202.184C114.846 204.1 113.033 207.177 112.744 210.624C112.536 213.174 113.174 215.648 114.599 217.785L303.729 500.84C305.396 503.344 307.949 505.047 310.901 505.638C313.855 506.224 316.866 505.636 319.37 503.968L558.422 345.133ZM389.23 21.7981C389.057 21.6056 388.879 21.4184 388.696 21.2367L390.544 20.0556C390.746 20.208 390.944 20.3668 391.136 20.5317L389.23 21.7981ZM392.067 19.9133C391.885 19.75 391.699 19.5918 391.508 19.4391L393.155 18.3862C393.369 18.5077 393.579 18.6359 393.786 18.771L392.067 19.9133ZM394.759 18.1243C394.567 17.9889 394.372 17.859 394.174 17.7347L395.578 16.8366C395.809 16.9266 396.036 17.0237 396.259 17.1276L394.759 18.1243ZM397.298 16.4373C397.096 16.33 396.89 16.2281 396.681 16.1317L397.7 15.4798C397.866 15.514 398.031 15.552 398.196 15.5938C398.285 15.6162 398.374 15.6397 398.462 15.6641L397.298 16.4373ZM399.614 14.8992C399.424 14.8317 399.233 14.7687 399.04 14.7101C399.221 14.6222 399.404 14.5398 399.59 14.4628C399.805 14.464 400.021 14.4717 400.236 14.4858L399.614 14.8992ZM600.102 332.345C600.217 330.96 600.067 329.591 599.664 328.291C599.554 328.366 599.442 328.44 599.329 328.513L592.899 332.624L596.053 337.896C596.323 338.348 596.561 338.813 596.769 339.289C598.673 337.478 599.881 335.004 600.102 332.345ZM595.122 338.456L591.983 333.209L585.147 337.58L589.045 344.321L595.007 340.647C595.317 340.456 595.616 340.249 595.903 340.029C595.686 339.489 595.425 338.963 595.122 338.456ZM588.123 344.889L584.235 338.163L577.606 342.401L581.337 349.071L588.123 344.889ZM580.416 349.638L576.694 342.984L570.257 347.1L573.831 353.696L580.416 349.638ZM572.911 354.263L569.345 347.683L563.089 351.683L566.516 358.204L572.911 354.263ZM565.592 358.773L562.173 352.269L304.006 517.331C298.625 520.766 291.441 519.201 287.989 513.832L98.545 219.203C97.1558 217.047 96.5335 214.565 96.7464 212.016C97.0477 208.392 98.9774 205.191 102.043 203.23L386.909 21.0978C386.73 20.9563 386.548 20.8197 386.362 20.6881L86.9319 205.205C84.0226 206.999 82.1197 210.102 81.8366 213.507C81.6442 215.819 82.1923 218.089 83.4169 220.066L273.185 526.271C274.7 528.722 277.092 530.438 279.906 531.103C282.715 531.767 285.619 531.299 288.08 529.78L565.592 358.773ZM387.358 20.074C387.532 20.206 387.703 20.3423 387.871 20.4828L389.571 19.3957C389.382 19.2807 389.19 19.1707 388.994 19.0659L387.358 20.074ZM390.041 18.4206C390.221 18.5281 390.398 18.6397 390.572 18.7554L392.029 17.8243C391.825 17.7358 391.619 17.6531 391.411 17.5763L390.041 18.4206ZM392.552 16.8731C392.739 16.956 392.924 17.0432 393.107 17.1349L394.245 16.4074C394.017 16.3488 393.788 16.2974 393.559 16.2529L392.552 16.8731ZM394.945 15.4815C395.114 15.5309 395.28 15.5836 395.446 15.6396L396.033 15.2639C395.849 15.254 395.664 15.2487 395.48 15.2481C395.301 15.3207 395.122 15.3985 394.945 15.4815ZM596.271 341.099C596.637 342.375 596.77 343.71 596.658 345.057C596.438 347.723 595.257 350.198 593.389 352.047C593.18 351.545 592.937 351.054 592.661 350.576L589.584 345.255L595.573 341.565C595.812 341.417 596.045 341.262 596.271 341.099ZM588.663 345.822L591.727 351.121C592.042 351.667 592.31 352.233 592.53 352.814C592.13 353.135 591.706 353.43 591.26 353.696L585.756 356.969L581.864 350.012L588.663 345.822ZM580.943 350.579L584.827 357.522L578.08 361.535L574.346 354.645L580.943 350.579ZM573.425 355.212L577.151 362.087L570.604 365.981L567.019 359.16L573.425 355.212ZM566.094 359.729L569.672 366.535L272.731 543.14C270.174 544.656 267.178 545.093 264.295 544.366C261.408 543.64 258.979 541.832 257.452 539.283L67.3693 221.509C66.172 219.507 65.6399 217.224 65.8329 214.908L65.8382 214.904C66.1335 211.327 68.1531 208.099 71.2358 206.265L384.819 19.7595C384.998 19.8505 385.176 19.9458 385.35 20.045L86.3612 204.287C83.1606 206.255 81.0691 209.671 80.7576 213.414C80.5452 215.958 81.1467 218.452 82.4951 220.627L272.264 526.827C273.935 529.528 276.565 531.414 279.658 532.143C282.757 532.873 285.951 532.36 288.652 530.689L566.094 359.729ZM386.389 19.4046C386.23 19.3045 386.068 19.2076 385.904 19.1141L387.263 18.3057C387.453 18.3723 387.641 18.4433 387.827 18.5186L386.389 19.4046ZM388.941 17.8321C388.776 17.7535 388.608 17.6782 388.439 17.6062L389.41 17.029C389.619 17.0669 389.826 17.1104 390.033 17.1594L388.941 17.8321ZM391.284 16.3882C391.137 16.3407 390.99 16.2958 390.841 16.2535C391.004 16.1791 391.168 16.1087 391.334 16.0424C391.499 16.0419 391.665 16.0449 391.831 16.0515L391.284 16.3882ZM593.224 357.765C593.333 356.457 593.215 355.157 592.882 353.908C592.543 354.162 592.189 354.399 591.821 354.617L586.283 357.911L589.273 363.257C589.556 363.76 589.802 364.278 590.012 364.807C591.847 362.926 593.001 360.446 593.224 357.765ZM588.332 363.786L585.354 358.464L578.594 362.484L582.473 369.64L587.525 366.736C588.106 366.402 588.651 366.021 589.156 365.599C588.935 364.977 588.659 364.371 588.332 363.786ZM581.536 370.178L577.666 363.036L571.107 366.937L574.835 374.03L581.536 370.178ZM573.895 374.57L570.174 367.492L273.292 544.066C270.489 545.734 267.204 546.211 264.038 545.41C260.871 544.614 258.205 542.632 256.532 539.834L66.4488 222.061C65.1371 219.861 64.5516 217.355 64.7633 214.816C65.0875 210.897 67.3005 207.357 70.6845 205.345L383.615 19.227C383.447 19.1632 383.278 19.1027 383.107 19.0456L55.5343 207.33C52.2783 209.204 50.1467 212.557 49.8351 216.3L49.8393 216.305C49.6504 218.627 50.1665 220.922 51.3366 222.95L241.739 552.298C244.895 557.76 251.918 559.641 257.393 556.496L573.895 374.57ZM384.325 18.3452C384.476 18.407 384.625 18.4713 384.773 18.5381L385.843 17.9019C385.658 17.861 385.473 17.8245 385.287 17.7924L384.325 18.3452ZM387.01 17.0916C387.053 17.1045 387.097 17.1175 387.139 17.1308L387.624 16.8423C387.482 16.8383 387.34 16.8368 387.197 16.8379C387.051 16.8955 386.905 16.9562 386.761 17.02C386.844 17.0431 386.927 17.0669 387.01 17.0916ZM589.491 366.71C589.793 367.934 589.896 369.202 589.79 370.474C589.567 373.167 588.436 375.654 586.631 377.565C586.421 377.01 586.173 376.466 585.886 375.938L582.985 370.585L588.065 367.665C588.565 367.377 589.041 367.058 589.491 366.71ZM582.049 371.123L584.937 376.452C585.274 377.075 585.554 377.721 585.776 378.384C585.169 378.909 584.503 379.377 583.784 379.775L579.196 382.327L575.335 374.982L582.049 371.123ZM574.396 375.523L578.249 382.854L242.054 569.851C239.303 571.381 236.123 571.747 233.093 570.891C230.063 570.036 227.552 568.049 226.016 565.307L35.2944 224.389C34.151 222.34 33.6461 220.032 33.8361 217.701C34.1598 213.787 36.404 210.304 39.8374 208.394L381.146 18.5612C381.309 18.5878 381.472 18.6178 381.635 18.6511L54.9984 206.401C51.4317 208.453 49.1013 212.122 48.7643 216.217C48.5574 218.757 49.118 221.27 50.403 223.49L240.805 552.838C244.262 558.813 251.949 560.88 257.937 557.434L574.396 375.523ZM382.984 17.8754L383.434 17.6171C383.317 17.6151 383.201 17.6147 383.085 17.6161C382.945 17.6699 382.805 17.7266 382.667 17.7862C382.773 17.8146 382.879 17.8444 382.984 17.8754ZM586.356 383.178C586.457 381.945 586.368 380.715 586.096 379.522C585.541 379.965 584.946 380.366 584.314 380.717L579.699 383.284L582.503 388.619C582.793 389.171 583.043 389.739 583.252 390.319C585.025 388.378 586.134 385.885 586.356 383.178ZM581.542 389.117L578.752 383.811L242.569 570.786C239.57 572.453 236.097 572.858 232.79 571.92C229.482 570.986 226.738 568.821 225.061 565.825L34.3395 224.907C33.09 222.672 32.5406 220.146 32.7523 217.607C33.1075 213.331 35.5551 209.533 39.3088 207.448L379.207 18.3986C379.124 18.3981 379.041 18.3986 378.957 18.3998C378.456 18.5903 377.963 18.815 377.483 19.0739L24.1459 209.455C20.5297 211.404 18.1693 215.007 17.8329 219.097L17.8323 219.102C17.6375 221.432 18.1305 223.758 19.2519 225.828L210.293 578.321C213.466 584.179 220.83 586.367 226.705 583.206L580.044 392.815C580.902 392.354 581.69 391.799 582.396 391.166C582.174 390.464 581.889 389.778 581.542 389.117ZM582.701 392.33C582.043 392.872 581.326 393.355 580.557 393.769L227.214 584.159C220.817 587.606 212.792 585.218 209.334 578.834L18.2931 226.34C17.0701 224.085 16.5414 221.548 16.7484 219.008C17.1211 214.557 19.6908 210.629 23.6267 208.509L375.328 19.0056C374.666 19.2212 374.018 19.4939 373.39 19.8231L8.45322 210.525C4.66002 212.504 2.18244 216.236 1.8291 220.498L1.82444 220.497C1.62905 222.832 2.10537 225.175 3.20499 227.266L194.565 591.33C196.111 594.265 198.706 596.425 201.877 597.414C205.053 598.404 208.417 598.1 211.362 596.561L576.302 405.864C580.091 403.88 582.568 400.152 582.922 395.886C583.022 394.689 582.947 393.493 582.701 392.33Z" fill="url(#paint0_linear_985_117812)"/>
<defs>
<linearGradient id="paint0_linear_985_117812" x1="467.5" y1="3.5" x2="273.871" y2="607.837" gradientUnits="userSpaceOnUse">
<stop stop-color="#81C7FF" stop-opacity="0.5"/>
<stop offset="1" stop-color="#0A3C64" stop-opacity="0.5"/>
</linearGradient>
</defs>
</svg>
